<svg width="160" height="160" viewBox="0 0 160 160" fill="none" xmlns="http://www.w3.org/2000/svg">
<g opacity="0.2">
<path d="M98.4749 93.1504C99.1581 87.9926 95.5321 83.7375 91.0009 81.1804C86.4697 78.6233 81.2134 77.7676 76.2089 76.3456C71.4889 75.0044 66.7945 73.0479 63.2985 69.6047C59.8026 66.1615 57.7053 60.9855 58.9622 56.2425C59.2778 55.0515 59.8416 53.8553 60.8643 53.1683C61.887 52.4812 63.4483 52.4988 64.2112 53.4662C65.8358 55.5267 62.6701 59.2169 64.6525 60.9356C65.1075 61.3302 65.7334 61.4755 66.2045 61.8508C67.4579 62.8505 67.0522 64.7939 67.2291 66.3875C67.5792 69.5391 70.5344 71.7276 73.4368 73.0044C77.3242 74.7148 81.5357 75.5187 85.6598 76.5324C89.784 77.5462 93.9424 78.8233 97.3782 81.3196C100.814 83.8159 103.795 87.7238 103.771 91.9705C103.764 93.1574 103.613 94.6166 102.869 95.5404C102.124 96.4643 101.175 96.6563 100.101 96.151C99.0272 95.6454 98.2758 94.8639 98.4749 93.1504Z" fill="#FF9B21"/>
<g opacity="0.8">
<path d="M98.4752 93.1504C99.1584 87.9926 95.5325 83.7375 91.0013 81.1804C86.4701 78.6233 81.2138 77.7676 76.2093 76.3456C71.4893 75.0044 66.7949 73.0479 63.2989 69.6047C59.8029 66.1615 57.7056 60.9855 58.9626 56.2425C59.2781 55.0515 59.8419 53.8553 60.8646 53.1683C61.8874 52.4812 63.4486 52.4988 64.2115 53.4662C65.8362 55.5267 62.6704 59.2169 64.6528 60.9356C65.1078 61.3302 65.7338 61.4755 66.2048 61.8508C67.4582 62.8505 67.0525 64.7939 67.2294 66.3875C67.5795 69.5391 70.5347 71.7276 73.4371 73.0044C77.3245 74.7148 81.536 75.5187 85.6602 76.5324C89.7843 77.5462 93.9427 78.8233 97.3786 81.3196C100.814 83.8159 103.795 87.7238 103.772 91.9705C103.765 93.1574 103.614 94.6166 102.869 95.5404C102.124 96.4643 101.176 96.6563 100.102 96.151C99.0275 95.6454 98.2762 94.8639 98.4752 93.1504Z" fill="white"/>
</g>
<path d="M76.5527 52.1511C76.3895 50.2407 77.8126 48.5774 79.4311 47.6855C81.0497 46.7937 82.9035 46.4315 84.5723 45.6404C88.7153 43.6763 91.3499 39.0539 91.5444 34.3124C91.739 29.571 89.6839 24.8324 86.4683 21.3499C85.1617 19.9348 83.5543 18.4523 83.5351 16.5217C83.515 14.5073 85.4689 12.9198 87.4206 12.9454C89.3723 12.971 91.1707 14.2772 92.339 15.9207C93.5073 17.5643 94.1537 19.5227 94.7828 21.4455C94.3345 20.6417 95.2551 19.6459 96.1422 19.7316C97.0292 19.8174 97.7294 20.5572 98.2769 21.2942C100.628 24.4596 101.792 28.5262 101.467 32.4439C101.143 36.3617 99.3339 40.09 96.5076 42.6663C93.3508 45.5438 89.1729 46.8939 85.1239 48.1716C82.3063 49.0606 79.4887 49.9499 76.6708 50.8388" fill="#FF9B21"/>
<g opacity="0.8">
<path d="M76.5522 52.1509C76.389 50.2405 77.8121 48.5771 79.4306 47.6853C81.0492 46.7934 82.9029 46.4312 84.5717 45.6402C88.7148 43.676 91.3493 39.0536 91.5439 34.3122C91.7385 29.5707 89.6834 24.8322 86.4677 21.3496C85.1612 19.9346 83.5538 18.452 83.5346 16.5215C83.5145 14.5071 85.4684 12.9195 87.4201 12.9451C89.3717 12.9707 91.1701 14.277 92.3385 15.9205C93.5068 17.564 94.1532 19.5224 94.7823 21.4453C94.334 20.6414 95.2546 19.6456 96.1417 19.7314C97.0287 19.8171 97.7289 20.557 98.2764 21.2939C100.627 24.4594 101.791 28.5259 101.467 32.4437C101.142 36.3615 99.3333 40.0898 96.5071 42.6661C93.3503 45.5435 89.1724 46.8936 85.1234 48.1714C82.3058 49.0603 79.4882 49.9496 76.6703 50.8386" fill="white"/>
</g>
<path d="M74.2018 12.0075C73.3621 12.3608 72.9013 13.4245 73.2178 14.2789C73.5346 15.1333 74.5771 15.6395 75.4443 15.3602C76.3115 15.0808 76.8626 14.061 76.6213 13.1826C76.3797 12.3039 75.3848 11.7093 74.4965 11.9125" fill="#FF9B21"/>
<g opacity="0.8">
<path d="M74.2015 12.0078C73.3618 12.3611 72.901 13.4248 73.2175 14.2792C73.5343 15.1336 74.5769 15.6398 75.4441 15.3604C76.3113 15.0811 76.8623 14.0612 76.621 13.1828C76.3794 12.3041 75.3846 11.7096 74.4962 11.9128" fill="white"/>
</g>
<path d="M84.6262 135.309C83.59 133.161 84.4934 130.483 86.144 128.762C87.7945 127.04 90.0492 126.058 92.232 125.096C97.0492 122.974 102.15 120.445 104.599 115.786C105.426 114.215 105.896 112.485 106.361 110.772C107.26 107.456 108.103 103.69 106.295 100.768C105.775 99.9273 104.993 99.1795 104.019 99.007C102.912 98.8102 101.772 99.4204 101.089 100.315C100.406 101.209 100.114 102.342 99.9724 103.458C99.7036 105.582 99.9264 107.743 99.703 109.872C99.4796 112.001 98.7008 114.227 96.9446 115.451C94.8121 116.938 91.7686 116.604 89.6972 118.175C88.0246 119.444 87.3884 121.643 86.0803 123.285C84.9808 124.665 83.4425 125.608 82.0332 126.669C80.624 127.73 79.2611 129.026 78.782 130.723C78.2848 132.487 78.9065 134.516 80.3072 135.698C81.7078 136.879 83.8118 137.151 85.4668 136.364" fill="#FF9B21"/>
<g opacity="0.8">
<path d="M84.6266 135.309C83.5904 133.16 84.4938 130.483 86.1443 128.761C87.7949 127.04 90.0496 126.057 92.2323 125.096C97.0496 122.974 102.15 120.445 104.6 115.786C105.426 114.214 105.897 112.485 106.361 110.772C107.261 107.455 108.103 103.689 106.295 100.767C105.775 99.927 104.993 99.1792 104.02 99.0067C102.912 98.8099 101.772 99.4202 101.09 100.315C100.407 101.209 100.114 102.342 99.9728 103.458C99.704 105.582 99.9267 107.742 99.7034 109.871C99.48 112 98.7011 114.227 96.945 115.451C94.8125 116.938 91.769 116.604 89.6976 118.175C88.025 119.444 87.3888 121.643 86.0806 123.285C84.9811 124.665 83.4429 125.608 82.0336 126.669C80.6243 127.73 79.2614 129.025 78.7824 130.723C78.2851 132.487 78.9069 134.516 80.3075 135.697C81.7082 136.879 83.8122 137.151 85.4672 136.364" fill="white"/>
</g>
<path d="M52.5848 26.834C50.8882 25.5754 49.853 23.4717 49.8904 21.3597C49.9282 19.2477 51.038 17.1821 52.7784 15.985C53.7624 15.3082 54.9292 14.8941 55.804 14.081C56.582 13.3581 57.0879 12.3553 57.9583 11.7473C59.0399 10.9921 60.6088 11.0253 61.6575 11.8257C62.7058 12.6263 63.1516 14.1313 62.7077 15.3735C62.3064 16.4967 61.2984 17.3172 60.877 18.4327C60.4236 19.6337 60.7157 20.9789 60.5471 22.2516C60.34 23.8154 59.3903 25.2644 58.0386 26.0778C56.6869 26.8913 54.9618 27.0522 53.4831 26.5028" fill="#FF9B21"/>
<g opacity="0.8">
<path d="M52.5845 26.8337C50.8879 25.5752 49.8527 23.4715 49.8901 21.3595C49.9279 19.2475 51.0377 17.1819 52.7781 15.9848C53.7621 15.308 54.9289 14.8939 55.8037 14.0808C56.5817 13.3579 57.0876 12.355 57.958 11.747C59.0396 10.9918 60.6085 11.0251 61.6572 11.8254C62.7055 12.6261 63.1513 14.131 62.7074 15.3733C62.3061 16.4965 61.2981 17.3169 60.8767 18.4325C60.4233 19.6334 60.7154 20.9787 60.5468 22.2513C60.3397 23.8152 59.39 25.2641 58.0383 26.0776C56.6866 26.891 54.9615 27.052 53.4828 26.5025" fill="white"/>
</g>
<path d="M54.9075 29.813H54.4391C53.4823 29.813 52.7069 29.0373 52.7069 28.0808V19.9736H56.6397V28.0808C56.6397 29.0373 55.8643 29.813 54.9075 29.813Z" fill="#FF9B21"/>
<path d="M52.7069 19.9742L54.6733 16.3674L56.6397 19.9742H52.7069Z" fill="#FFBE9D"/>
<path d="M53.8944 17.7959C53.8944 17.7959 54.4915 18.6938 55.4522 17.7959L54.6733 16.3674L53.8944 17.7959Z" fill="#FF9B21"/>
<path d="M56.6949 27.6856C56.6949 27.7294 55.7999 27.7649 54.6959 27.7649C53.5915 27.7649 52.6968 27.7294 52.6968 27.6856C52.6968 27.6417 53.5919 27.6062 54.6959 27.6062C55.7999 27.6062 56.6949 27.6417 56.6949 27.6856Z" fill="#263238"/>
<path d="M56.6549 27.083C56.6549 27.1269 55.7778 27.1624 54.6962 27.1624C53.614 27.1624 52.7372 27.1269 52.7372 27.083C52.7372 27.0392 53.614 27.0037 54.6962 27.0037C55.7781 27.0037 56.6549 27.0392 56.6549 27.083Z" fill="#263238"/>
<path d="M53.8613 20.0312C53.9051 20.0312 53.9406 21.6012 53.9406 23.5369C53.9406 25.4735 53.9051 27.0428 53.8613 27.0428C53.8174 27.0428 53.7819 25.4735 53.7819 23.5369C53.7819 21.6009 53.8174 20.0312 53.8613 20.0312Z" fill="#FAFAFA"/>
<path d="M55.4538 20.0312C55.4977 20.0312 55.5332 21.6012 55.5332 23.5369C55.5332 25.4735 55.4977 27.0428 55.4538 27.0428C55.41 27.0428 55.3745 25.4735 55.3745 23.5369C55.3745 21.6009 55.41 20.0312 55.4538 20.0312Z" fill="#FAFAFA"/>
</g>
<path d="M86.8736 130.79L104.74 131.554L105.172 132.595L93.4621 151.603L72.3222 150.987L86.8736 130.79Z" fill="#263238"/>
<path d="M71.5222 149.133L92.7891 150.348L103.897 133.11L96.0973 133.744L76.3555 140.696L71.5222 149.133Z" fill="#E0E0E0"/>
<path d="M68.5335 147.855L88.0628 148.163C87.2516 145.664 89.1649 142.145 91.7902 140.962C93.5303 140.177 96.8049 139.161 98.4945 138.294C101.705 136.647 104.606 133.528 104.352 130.852L96.3316 130.597L86.0945 130.201C85.2385 132.741 83.4074 134.405 80.6238 135.405C78.1326 136.301 75.2974 136.299 72.8676 137.316C68.9566 138.954 67.0772 144.261 68.5335 147.855Z" fill="#EBEBEB"/>
<path d="M68.5342 147.854C68.5342 147.854 68.5156 147.813 68.4852 147.728C68.4536 147.639 68.4094 147.514 68.3515 147.351C68.2833 147.188 68.2436 146.972 68.1851 146.719C68.115 146.468 68.0917 146.167 68.0504 145.83C68.0008 145.154 68.0078 144.31 68.2052 143.347C68.404 142.389 68.7816 141.309 69.4577 140.248C69.6331 139.987 69.8017 139.712 70.02 139.463C70.1259 139.336 70.2251 139.201 70.3396 139.076C70.4587 138.956 70.5787 138.834 70.7003 138.711C70.8174 138.583 70.9521 138.471 71.0907 138.36C71.2289 138.25 71.3627 138.13 71.5089 138.024C71.8152 137.831 72.1118 137.607 72.4596 137.457C73.8129 136.775 75.4296 136.487 77.1131 136.182C77.9573 136.029 78.8264 135.868 79.699 135.628C80.5678 135.381 81.443 135.052 82.2734 134.591C82.6907 134.366 83.0939 134.103 83.475 133.803C83.859 133.508 84.219 133.172 84.5413 132.796C85.1979 132.054 85.692 131.152 86.0251 130.177L86.043 130.125L86.0977 130.127C88.8165 130.231 91.6702 130.34 94.6276 130.453C97.5851 130.569 100.648 130.649 103.783 130.754C103.976 130.76 104.168 130.767 104.355 130.773L104.426 130.775L104.432 130.845C104.486 131.463 104.373 132.079 104.174 132.65C104.083 132.94 103.943 133.209 103.816 133.482C103.665 133.742 103.525 134.007 103.349 134.25C102.683 135.244 101.83 136.076 100.93 136.807C100.022 137.533 99.0363 138.136 98.0101 138.611C96.9797 139.074 95.9368 139.452 94.915 139.83C93.8939 140.208 92.8837 140.566 91.9246 140.983C91.4542 141.202 91.0024 141.452 90.611 141.781C90.4033 141.929 90.2302 142.116 90.0405 142.282C89.8734 142.471 89.6875 142.642 89.539 142.843C88.9083 143.617 88.4344 144.494 88.1733 145.41C87.8968 146.32 87.8661 147.283 88.1249 148.143L88.1512 148.229L88.0622 148.228C82.147 148.123 77.2667 148.036 73.8593 147.976C72.1614 147.941 70.8315 147.914 69.9208 147.896C69.4712 147.885 69.1259 147.876 68.8875 147.87C68.6542 147.863 68.5342 147.854 68.5342 147.854C68.5342 147.854 68.6545 147.849 68.8881 147.85C69.1265 147.851 69.4718 147.854 69.9214 147.856C70.8325 147.867 72.1624 147.882 73.8606 147.901C77.268 147.948 82.1486 148.015 88.0645 148.097L88.0017 148.183C87.7304 147.292 87.7627 146.302 88.0427 145.372C88.3076 144.436 88.7883 143.543 89.4292 142.754C89.5803 142.549 89.7691 142.374 89.9396 142.181C90.1326 142.011 90.3092 141.82 90.5214 141.668C90.9201 141.332 91.3861 141.073 91.8654 140.849C92.8325 140.427 93.8421 140.068 94.8629 139.689C95.8833 139.31 96.9253 138.931 97.9461 138.471C98.9589 138.001 99.9345 137.404 100.832 136.686C101.722 135.962 102.565 135.138 103.218 134.162C103.391 133.924 103.528 133.663 103.676 133.409C103.8 133.143 103.936 132.88 104.024 132.598C104.217 132.043 104.325 131.451 104.274 130.86L104.351 130.932C104.163 130.926 103.971 130.92 103.778 130.914C100.643 130.809 97.5797 130.727 94.6219 130.609C91.6645 130.493 88.8107 130.382 86.092 130.275L86.1643 130.225C85.8244 131.215 85.3188 132.135 84.6484 132.89C84.3192 133.272 83.9518 133.614 83.5608 133.914C83.1723 134.217 82.7627 134.484 82.339 134.711C81.4961 135.176 80.612 135.507 79.7336 135.753C78.8529 135.993 77.9796 136.152 77.1348 136.303C75.4504 136.603 73.8427 136.886 72.5077 137.553C72.1649 137.7 71.8721 137.92 71.5691 138.108C71.4245 138.212 71.2923 138.33 71.1553 138.438C71.0181 138.546 70.8846 138.656 70.7688 138.783C70.6481 138.904 70.5288 139.023 70.4107 139.142C70.2968 139.264 70.1982 139.397 70.0929 139.522C69.876 139.767 69.708 140.039 69.5329 140.296C68.858 141.343 68.4769 142.412 68.2728 143.362C68.0702 144.316 68.0558 145.154 68.0974 145.827C68.1349 146.162 68.1541 146.462 68.22 146.712C68.2744 146.965 68.3099 147.181 68.3742 147.345C68.427 147.509 68.4673 147.635 68.4964 147.725C68.5233 147.809 68.5342 147.854 68.5342 147.854Z" fill="#263238"/>
<path d="M91.5815 130.518C91.5674 130.514 91.6071 130.393 91.6257 130.169C91.6426 129.947 91.6279 129.614 91.4724 129.247C91.322 128.883 91.0225 128.481 90.5492 128.257C90.083 128.033 89.4666 127.986 88.9034 128.198C88.3361 128.407 87.9274 128.869 87.7146 129.343C87.4932 129.82 87.4631 130.312 87.5268 130.703C87.5908 131.097 87.7402 131.394 87.8605 131.582C87.9815 131.772 88.0717 131.862 88.0618 131.871C88.0567 131.877 87.9508 131.802 87.81 131.617C87.6702 131.434 87.498 131.134 87.4164 130.723C87.3351 130.316 87.354 129.793 87.5812 129.283C87.7988 128.778 88.2337 128.276 88.8477 128.05C89.4541 127.821 90.114 127.876 90.6138 128.126C91.123 128.376 91.4324 128.817 91.577 129.205C91.7274 129.599 91.7242 129.949 91.6874 130.176C91.6682 130.291 91.6452 130.378 91.6222 130.434C91.6004 130.491 91.5866 130.52 91.5815 130.518Z" fill="#263238"/>
<path d="M94.6411 130.518C94.6271 130.514 94.6667 130.393 94.6853 130.169C94.7023 129.947 94.6875 129.614 94.532 129.247C94.3816 128.883 94.0821 128.481 93.6088 128.257C93.1426 128.033 92.5266 127.986 91.9631 128.198C91.3957 128.407 90.9871 128.869 90.7743 129.343C90.5525 129.82 90.5227 130.312 90.5864 130.703C90.6504 131.097 90.7999 131.394 90.9202 131.582C91.0411 131.772 91.1314 131.862 91.1215 131.871C91.1163 131.877 91.0104 131.802 90.8696 131.617C90.7298 131.434 90.5576 131.134 90.476 130.723C90.3947 130.316 90.4136 129.793 90.6408 129.283C90.8584 128.778 91.2933 128.276 91.9074 128.05C92.5138 127.821 93.1736 127.876 93.6735 128.126C94.1826 128.376 94.492 128.817 94.6367 129.205C94.7871 129.599 94.7839 129.949 94.7471 130.176C94.7279 130.291 94.7048 130.378 94.6818 130.434C94.66 130.491 94.6463 130.52 94.6411 130.518Z" fill="#263238"/>
<path d="M96.9656 130.677C96.9512 130.673 96.9841 130.55 96.9899 130.326C96.9944 130.103 96.9608 129.772 96.7845 129.414C96.6136 129.06 96.292 128.674 95.8069 128.478C95.3285 128.28 94.7109 128.268 94.1605 128.512C93.6059 128.752 93.2238 129.237 93.0382 129.722C92.844 130.211 92.8421 130.704 92.9275 131.091C93.0139 131.481 93.1797 131.768 93.3105 131.95C93.4421 132.132 93.5374 132.217 93.5278 132.227C93.523 132.233 93.4129 132.164 93.2619 131.988C93.1121 131.813 92.923 131.523 92.8184 131.117C92.7141 130.715 92.7032 130.191 92.9016 129.67C93.0901 129.153 93.4958 128.627 94.0961 128.367C94.6885 128.105 95.3505 128.122 95.8635 128.343C96.3857 128.564 96.7201 128.987 96.8862 129.366C97.0587 129.751 97.0753 130.1 97.0517 130.329C97.0392 130.445 97.0209 130.533 97.0011 130.591C96.9829 130.649 96.9707 130.678 96.9656 130.677Z" fill="#263238"/>
<path d="M99.4585 130.819C99.4438 130.816 99.47 130.691 99.4639 130.467C99.4566 130.244 99.4057 129.915 99.2105 129.567C99.0211 129.222 98.6796 128.855 98.1846 128.684C97.6966 128.512 97.079 128.533 96.5423 128.806C96.0012 129.074 95.6454 129.578 95.4857 130.073C95.3177 130.572 95.3417 131.064 95.4476 131.446C95.5545 131.831 95.7353 132.109 95.8755 132.283C96.0166 132.458 96.1161 132.538 96.1071 132.548C96.1027 132.555 95.989 132.492 95.829 132.323C95.67 132.157 95.4662 131.877 95.3401 131.477C95.2147 131.081 95.1762 130.56 95.3465 130.028C95.5074 129.502 95.8847 128.955 96.4703 128.664C97.0479 128.37 97.71 128.353 98.2339 128.546C98.7673 128.739 99.1231 129.144 99.3094 129.514C99.502 129.888 99.5372 130.237 99.5254 130.467C99.519 130.583 99.5055 130.672 99.4889 130.731C99.4745 130.79 99.4639 130.82 99.4585 130.819Z" fill="#263238"/>
<path d="M101.957 130.761C101.942 130.759 101.965 130.633 101.952 130.409C101.939 130.187 101.879 129.859 101.674 129.516C101.475 129.177 101.123 128.819 100.624 128.663C100.131 128.505 99.5144 128.543 98.9857 128.831C98.4523 129.115 98.1108 129.628 97.9652 130.127C97.8113 130.631 97.8491 131.122 97.9659 131.5C98.0833 131.882 98.2721 132.155 98.4171 132.325C98.563 132.497 98.6648 132.573 98.6561 132.584C98.652 132.591 98.5364 132.531 98.3716 132.367C98.2081 132.205 97.9963 131.931 97.859 131.535C97.7224 131.143 97.6692 130.622 97.8248 130.086C97.9707 129.556 98.3329 128.999 98.9099 128.691C99.4792 128.382 100.14 128.345 100.67 128.524C101.208 128.702 101.575 129.096 101.772 129.461C101.975 129.83 102.02 130.177 102.015 130.407C102.012 130.523 102.001 130.613 101.986 130.672C101.972 130.731 101.962 130.762 101.957 130.761Z" fill="#263238"/>
<path d="M104.06 131.04C104.046 131.037 104.073 130.913 104.07 130.689C104.065 130.466 104.018 130.136 103.827 129.786C103.642 129.439 103.304 129.067 102.812 128.891C102.326 128.713 101.708 128.727 101.168 128.993C100.624 129.256 100.262 129.756 100.097 130.248C99.9227 130.745 99.9413 131.238 100.043 131.621C100.145 132.007 100.322 132.287 100.461 132.463C100.6 132.64 100.698 132.72 100.689 132.731C100.685 132.737 100.572 132.673 100.414 132.503C100.257 132.334 100.056 132.052 99.9346 131.651C99.8139 131.253 99.7813 130.731 99.9579 130.202C100.125 129.677 100.509 129.135 101.098 128.851C101.679 128.564 102.341 128.554 102.863 128.754C103.394 128.953 103.745 129.362 103.927 129.734C104.116 130.111 104.146 130.46 104.132 130.689C104.124 130.805 104.11 130.894 104.092 130.953C104.076 131.012 104.065 131.041 104.06 131.04Z" fill="#263238"/>
<path d="M113.265 65.489C112.424 65.4653 111.533 65.4954 110.619 65.6087C105.105 66.2919 100.997 71.0282 101.007 76.5843C101.011 78.2023 101.183 80.0128 101.692 81.8157C103.23 87.2733 103.705 92.0855 103.527 94.4279L108.678 97.1968C108.678 97.1968 111.063 93.7709 113.366 92.2928C115.67 90.8151 123.338 86.8647 126.374 82.8032C128.331 80.1847 128.707 74.8112 124.042 70.1117C121.191 67.2403 117.309 65.6029 113.265 65.489Z" fill="#77A8AF"/>
<path d="M101.088 100.388L105.741 102.903L102.712 106.75L99.6099 105.34L101.088 100.388Z" fill="#455A64"/>
<path d="M101.312 100.543C101.271 100.528 101.733 99.1467 102.344 97.4583C102.955 95.7694 103.483 94.4126 103.525 94.4276C103.566 94.4427 103.104 95.8234 102.493 97.5124C101.882 99.2007 101.354 100.558 101.312 100.543Z" fill="#263238"/>
<path d="M105.449 102.713C105.411 102.691 106.14 101.386 107.077 99.7999C108.014 98.2127 108.804 96.9442 108.842 96.9666C108.88 96.989 108.151 98.2933 107.214 99.8805C106.277 101.467 105.486 102.736 105.449 102.713Z" fill="#263238"/>
<g opacity="0.4">
<path d="M114.814 65.6355C114.605 65.647 112.045 68.6442 110.912 70.6727C107.102 77.497 106.931 84.1389 105.873 91.8832C105.722 92.9894 105.172 95.3747 105.182 95.3194C105.746 95.7613 107.641 96.641 107.641 96.641C107.641 96.641 109.428 94.4842 110.138 93.3994C112.982 89.0554 116.069 85.6691 118.503 81.0832C120.938 76.497 123.28 72.4304 121.028 67.7523C121.028 67.7523 117.126 65.5059 114.814 65.6355Z" fill="black"/>
</g>
<path d="M126.393 83.4899C126.39 83.4912 126.367 83.4406 126.327 83.3424C126.284 83.2451 126.235 83.0954 126.149 82.9098C125.981 82.5376 125.706 82.0016 125.25 81.3971C124.791 80.7981 124.152 80.1213 123.273 79.553C122.408 78.9715 121.294 78.511 120.031 78.3526L120 78.3488L119.982 78.3242C119.39 77.5258 118.711 76.7021 117.902 75.9376C117.096 75.1754 116.151 74.4739 115.064 73.9834C113.98 73.4995 112.812 73.2851 111.71 73.344C110.608 73.3997 109.574 73.7501 108.774 74.3222L108.728 74.3555L108.685 74.3178C107.729 73.4765 106.582 73.0416 105.55 72.9245C104.51 72.8045 103.588 72.9958 102.885 73.2643C102.176 73.5341 101.676 73.8771 101.353 74.1261C101.192 74.2518 101.072 74.3542 100.994 74.4259C100.915 74.497 100.873 74.5322 100.87 74.5296C100.867 74.5267 100.904 74.4861 100.979 74.4093C101.052 74.3318 101.167 74.2234 101.326 74.0909C101.642 73.8288 102.139 73.4701 102.854 73.1846C103.563 72.9008 104.501 72.6938 105.564 72.8064C106.619 72.9162 107.794 73.3517 108.78 74.2102L108.691 74.2058C109.512 73.6122 110.574 73.2483 111.702 73.1891C112.83 73.1261 114.022 73.344 115.13 73.8381C116.238 74.3376 117.195 75.0518 118.009 75.8246C118.825 76.5997 119.506 77.433 120.097 78.2387L120.048 78.2102C121.336 78.3782 122.466 78.8554 123.339 79.4534C124.226 80.0384 124.865 80.7325 125.318 81.3453C125.77 81.9638 126.035 82.511 126.19 82.8912C126.271 83.0806 126.313 83.2339 126.349 83.3338C126.382 83.4358 126.397 83.4886 126.393 83.4899Z" fill="#263238"/>
<path d="M116.816 90.2894C116.785 90.3003 116.791 89.8238 116.372 89.17C116.16 88.8526 115.844 88.492 115.383 88.2206C114.932 87.9412 114.329 87.7537 113.678 87.8168L113.614 87.8228L113.604 87.7588C113.501 87.0971 113.226 86.3931 112.759 85.7691C112.293 85.1483 111.642 84.5944 110.847 84.2856C110.195 84.0257 109.501 83.9348 108.849 83.9793C108.196 84.026 107.587 84.2113 107.07 84.482L107.021 84.5076L106.983 84.4673C106.468 83.9156 105.804 83.6062 105.194 83.4984C104.583 83.3748 104.025 83.4369 103.591 83.5486C102.71 83.7886 102.335 84.2139 102.318 84.1806C102.315 84.1777 102.338 84.154 102.386 84.1112C102.435 84.0702 102.502 84.0014 102.604 83.9304C102.804 83.7851 103.123 83.5969 103.568 83.466C104.01 83.3393 104.583 83.2638 105.216 83.3812C105.847 83.483 106.543 83.795 107.089 84.3704L107.002 84.3556C107.535 84.0712 108.164 83.8756 108.839 83.8248C109.512 83.7758 110.23 83.8683 110.907 84.1377C111.731 84.4587 112.405 85.0344 112.882 85.6779C113.362 86.3249 113.639 87.0539 113.738 87.7384L113.664 87.6808C114.352 87.6212 114.979 87.8283 115.441 88.1252C115.914 88.4148 116.231 88.7944 116.439 89.1268C116.645 89.4644 116.736 89.7646 116.78 89.9694C116.802 90.0718 116.806 90.1531 116.813 90.2065C116.819 90.2609 116.82 90.2888 116.816 90.2894Z" fill="#263238"/>
<path d="M104.843 104.115C104.831 104.124 104.792 104.051 104.672 104.002C104.552 103.951 104.358 103.945 104.127 104.018C104.01 104.05 103.876 104.093 103.716 104.094C103.556 104.096 103.379 104.019 103.256 103.891C103.009 103.634 102.915 103.262 102.682 103.005C102.566 102.879 102.415 102.815 102.253 102.824C102.092 102.831 101.93 102.884 101.768 102.921C101.607 102.959 101.437 102.984 101.28 102.947C101.125 102.914 100.997 102.837 100.899 102.752C100.702 102.579 100.615 102.375 100.593 102.235C100.569 102.093 100.592 102.014 100.6 102.015C100.613 102.015 100.613 102.093 100.653 102.22C100.691 102.345 100.786 102.522 100.97 102.665C101.062 102.735 101.176 102.796 101.306 102.818C101.435 102.843 101.58 102.82 101.733 102.779C101.887 102.74 102.053 102.679 102.247 102.668C102.443 102.651 102.661 102.741 102.797 102.895C103.068 103.203 103.153 103.569 103.362 103.789C103.462 103.897 103.589 103.957 103.719 103.962C103.851 103.967 103.98 103.934 104.101 103.909C104.344 103.846 104.572 103.869 104.699 103.946C104.829 104.024 104.85 104.115 104.843 104.115Z" fill="#263238"/>
<path d="M105.376 103.367C105.355 103.406 104.339 102.904 103.106 102.246C101.872 101.588 100.889 101.024 100.91 100.985C100.931 100.946 101.947 101.448 103.181 102.106C104.414 102.764 105.397 103.328 105.376 103.367Z" fill="#263238"/>
<path d="M104.452 104.541C104.454 104.553 104.387 104.573 104.275 104.625C104.218 104.65 104.153 104.689 104.064 104.724C103.976 104.761 103.861 104.775 103.744 104.766C103.511 104.75 103.225 104.677 102.977 104.471C102.854 104.37 102.75 104.223 102.684 104.068C102.616 103.917 102.562 103.761 102.459 103.65C102.246 103.422 101.902 103.398 101.616 103.408C101.323 103.419 101.033 103.428 100.807 103.331C100.584 103.237 100.449 103.079 100.398 102.956C100.346 102.83 100.364 102.753 100.372 102.754C100.386 102.752 100.39 102.825 100.453 102.927C100.514 103.028 100.645 103.156 100.847 103.226C101.048 103.298 101.311 103.282 101.611 103.262C101.903 103.246 102.297 103.251 102.577 103.542C102.709 103.689 102.763 103.862 102.827 104.005C102.887 104.151 102.967 104.267 103.073 104.36C103.283 104.545 103.541 104.626 103.754 104.654C103.97 104.694 104.125 104.604 104.253 104.567C104.378 104.531 104.45 104.532 104.452 104.541Z" fill="#263238"/>
<path d="M69.3194 74.6548L77.3661 73.4615L73.5187 68.0112L71.4557 68.1328C70.0672 68.2147 68.8432 69.0727 68.2928 70.3501C68.0003 71.0285 67.919 71.7792 68.0592 72.5047L69.3194 74.6548Z" fill="#FF9B21"/>
<path opacity="0.4" d="M69.3194 74.6548L77.3661 73.4615L73.5187 68.0112L71.4557 68.1328C70.0672 68.2147 68.8432 69.0727 68.2928 70.3501C68.0003 71.0285 67.919 71.7792 68.0592 72.5047L69.3194 74.6548Z" fill="black"/>
<path d="M103.885 83.5711C103.968 83.8015 104.059 84.0745 104.15 84.4005C104.229 84.6805 104.257 84.9724 104.237 85.2626C104.213 85.6143 104.162 86.0809 104.056 86.3273C103.923 86.6325 104.231 86.9397 104.491 86.7871C104.752 86.6345 105.137 85.8025 105.113 84.7314C105.09 83.6604 106.182 84.9442 106.589 85.4047C106.995 85.8652 108.32 87.2316 108.561 87.2188C108.913 87.1999 108.958 86.8185 108.542 86.3679C108.12 85.9119 106.97 84.478 107.224 84.2751C107.474 84.0751 109.512 86.4485 109.512 86.4485C109.512 86.4485 109.865 87.0265 110.166 86.8015C110.709 86.3961 108.357 84.0325 108.128 83.8133C107.968 83.6607 108.236 83.4306 108.398 83.6034C108.566 83.7813 110.376 86.0181 110.932 85.6105C111.359 85.2978 109.016 83.6485 108.898 82.9759C108.78 82.3033 110.548 84.4073 110.943 84.0921C111.091 83.9746 111.184 83.8665 109.995 82.8047C109.417 82.2892 107.222 80.7532 107.222 80.7532L100.618 61.8428L95.5173 64.7637L103.885 83.5711Z" fill="#FFBE9D"/>
<path d="M64.5677 47.8077L57.1872 38.9997L57.1866 39C57.0909 38.6973 56.976 38.402 56.8256 38.122C56.4566 37.4349 55.8464 36.8362 55.0845 36.6695C54.6163 36.5671 54.0806 36.6164 53.7133 36.3085C53.5491 36.1709 53.4397 35.9751 53.2675 35.8474C53.0957 35.7197 52.809 35.6951 52.6989 35.8791C52.6205 36.01 52.6704 36.1776 52.7296 36.3181C53.0035 36.9684 53.4512 37.5428 54.0109 37.9719C53.3187 38.1821 52.3306 38.5002 52.3306 38.5002C52.3306 38.5002 50.7702 36.8074 49.9712 36.8128C49.1722 36.8183 50.617 38.3242 50.617 38.3242C50.617 38.3242 49.3373 37.1418 48.9405 37.4749C48.5437 37.8084 49.5606 38.6861 49.5606 38.6861C49.2374 38.5133 48.8838 38.3354 48.5226 38.3952C48.1613 38.4554 47.8502 38.882 48.0448 39.192C48.1194 39.3111 48.247 39.384 48.3699 39.4525C49.0246 39.8173 49.6794 40.1824 50.3344 40.5476C50.663 40.7309 51.0083 40.9188 51.3846 40.9303C52.3811 40.961 53.1389 40.344 54.1354 40.3706C54.1354 40.3706 59.7008 52.0861 60.2637 52.6903C60.8266 53.2944 73.0531 54.1172 73.0531 54.1172L80.1296 48.0202L64.5677 47.8077Z" fill="#FFBE9D"/>
<path d="M86.7352 111.624L94.2721 114.906L90.236 124.304C89.3617 123.863 89.6475 118.228 89.6475 118.228L84.7323 116.323L86.7352 111.624Z" fill="#FF9B21"/>
<g opacity="0.6">
<path d="M90.4873 115.146C90.6153 114.986 90.8735 114.948 91.0393 115.069C91.205 115.19 91.2457 115.453 91.1206 115.615C90.9954 115.778 90.6866 115.833 90.5356 115.694C90.3846 115.555 90.3535 115.244 90.5139 115.116" fill="white"/>
</g>
<path opacity="0.6" d="M94.2705 114.906L93.4981 114.605L89.9173 123.728C89.9173 123.728 89.9195 124.225 90.2347 124.304L94.2705 114.906Z" fill="white"/>
<path d="M89.5335 118.36C89.5802 118.378 89.6993 118.157 89.9441 117.995C90.1844 117.826 90.433 117.795 90.433 117.745C90.4423 117.699 90.1386 117.649 89.8458 117.851C89.5514 118.051 89.4871 118.351 89.5335 118.36Z" fill="#263238"/>
<path d="M89.5177 119.521C89.5577 119.55 89.7209 119.385 89.982 119.313C90.2409 119.232 90.4678 119.283 90.4854 119.237C90.5113 119.197 90.2559 119.05 89.9331 119.146C89.6095 119.239 89.4742 119.501 89.5177 119.521Z" fill="#263238"/>
<path d="M90.4581 120.587C90.4859 120.549 90.284 120.387 89.9819 120.397C89.6799 120.404 89.4879 120.578 89.5176 120.614C89.5442 120.656 89.7387 120.575 89.9867 120.57C90.2351 120.561 90.4341 120.631 90.4581 120.587Z" fill="#263238"/>
<path d="M88.4627 117.801C88.5127 117.799 88.5399 117.561 88.6688 117.31C88.7927 117.055 88.9664 116.891 88.9373 116.85C88.9155 116.809 88.6611 116.933 88.5133 117.232C88.3632 117.529 88.417 117.808 88.4627 117.801Z" fill="#263238"/>
<path d="M87.4433 117.098C87.4622 117.107 87.5685 116.937 87.643 116.626C87.6798 116.471 87.7057 116.281 87.7032 116.069C87.7016 115.963 87.6933 115.851 87.6757 115.737C87.6664 115.682 87.6603 115.618 87.6261 115.547C87.6001 115.476 87.4907 115.395 87.3909 115.422C87.2981 115.438 87.2302 115.51 87.1995 115.577C87.1675 115.646 87.1573 115.708 87.148 115.764C87.1285 115.88 87.1211 115.993 87.1227 116.1C87.1272 116.315 87.1678 116.505 87.2213 116.656C87.3294 116.961 87.4689 117.109 87.4846 117.097C87.5086 117.083 87.4104 116.915 87.3394 116.622C87.3038 116.475 87.2789 116.297 87.283 116.1C87.2856 116.002 87.2958 115.899 87.3157 115.794C87.3323 115.684 87.3678 115.598 87.4232 115.592C87.444 115.59 87.4513 115.592 87.4715 115.625C87.4891 115.658 87.4981 115.71 87.5073 115.764C87.5259 115.871 87.5371 115.974 87.5425 116.074C87.5534 116.273 87.5416 116.454 87.5214 116.604C87.4818 116.905 87.4184 117.088 87.4433 117.098Z" fill="#263238"/>
<path d="M87.5342 117.067C87.5483 117.053 87.4228 116.891 87.1329 116.747C86.9889 116.676 86.8036 116.615 86.5899 116.59C86.4833 116.579 86.3697 116.576 86.2526 116.587C86.1361 116.602 85.9828 116.616 85.8859 116.785C85.8424 116.877 85.882 116.985 85.9326 117.038C85.9828 117.097 86.0347 117.126 86.0843 117.161C86.1867 117.225 86.2952 117.269 86.4011 117.297C86.6139 117.353 86.8155 117.343 86.9736 117.305C87.2961 117.226 87.4331 117.058 87.4193 117.047C87.403 117.022 87.2455 117.144 86.9511 117.184C86.8062 117.203 86.6273 117.2 86.4449 117.143C86.354 117.115 86.2622 117.074 86.1768 117.017C86.083 116.96 86.0187 116.888 86.0449 116.855C86.0641 116.808 86.1735 116.761 86.2699 116.756C86.3748 116.744 86.4776 116.743 86.5752 116.749C86.7704 116.763 86.9438 116.807 87.084 116.859C87.3659 116.966 87.5166 117.089 87.5342 117.067Z" fill="#263238"/>
<path d="M80.9301 124.534L84.0472 131.065L85.0235 136.942C85.0939 137.365 85.508 137.641 85.9259 137.542C86.1598 137.486 86.3515 137.323 86.4414 137.1C87.0146 135.681 89.0965 130.452 88.8414 129.986C88.5464 129.448 86.0104 122.879 86.0104 122.879L80.9301 124.534Z" fill="#FF9B21"/>
<path opacity="0.6" d="M85.9251 137.542L88.6406 129.542L88.7664 129.821C88.8752 130.063 88.8956 130.335 88.8217 130.59C88.624 131.271 88.0368 133.139 86.4608 137.092C86.3692 137.322 86.1673 137.492 85.9251 137.542Z" fill="white"/>
<g opacity="0.6">
<path d="M86.3312 128.021C86.2172 128.209 86.2755 128.484 86.4595 128.605C86.6435 128.727 86.9228 128.67 87.0403 128.483C87.1574 128.297 87.0976 127.965 86.9011 127.865C86.7049 127.765 86.3801 127.849 86.311 128.059" fill="white"/>
</g>
<path d="M86.1393 133.98C86.1101 134.015 85.8058 133.736 85.3297 133.727C84.8538 133.703 84.5309 133.96 84.5044 133.923C84.4913 133.909 84.5517 133.821 84.6967 133.73C84.8397 133.638 85.0727 133.56 85.3354 133.568C85.5981 133.578 85.825 133.673 85.9613 133.774C86.0993 133.875 86.1533 133.967 86.1393 133.98Z" fill="#263238"/>
<path d="M86.0649 135.075C86.0463 135.118 85.7378 134.998 85.3525 135.054C84.966 135.101 84.6997 135.297 84.6706 135.261C84.6364 135.235 84.8911 134.953 85.3314 134.896C85.7711 134.835 86.0911 135.042 86.0649 135.075Z" fill="#263238"/>
<path d="M86.5047 132.454C86.4877 132.499 86.0144 132.313 85.4077 132.347C84.8003 132.372 84.3472 132.603 84.3261 132.559C84.2995 132.529 84.7488 132.217 85.4 132.188C86.0509 132.154 86.528 132.421 86.5047 132.454Z" fill="#263238"/>
<path d="M85.7222 130.39C85.7222 130.437 85.2893 130.448 84.8071 130.645C84.3219 130.834 84 131.124 83.9674 131.089C83.9347 131.065 84.2275 130.702 84.7482 130.497C85.2669 130.287 85.7293 130.35 85.7222 130.39Z" fill="#263238"/>
<path d="M84.855 128.449C84.8518 128.496 84.3862 128.441 83.8953 128.689C83.399 128.926 83.1583 129.329 83.119 129.303C83.102 129.294 83.1369 129.179 83.2495 129.022C83.3609 128.866 83.5599 128.678 83.8252 128.547C84.0911 128.416 84.3618 128.374 84.5532 128.381C84.7455 128.387 84.8582 128.43 84.855 128.449Z" fill="#263238"/>
<path d="M83.7418 128.315C83.7335 128.319 83.6787 128.237 83.6205 128.07C83.5632 127.903 83.504 127.647 83.5251 127.327C83.5415 127.172 83.5447 126.981 83.6899 126.811C83.7619 126.726 83.9059 126.682 84.0237 126.734C84.1395 126.784 84.2128 126.882 84.2621 126.985C84.4435 127.407 84.2659 127.974 83.8218 128.246C83.3719 128.511 82.8218 128.434 82.472 128.156C82.3888 128.081 82.3088 127.978 82.3101 127.844C82.3098 127.709 82.4237 127.603 82.5258 127.577C82.7351 127.518 82.9095 127.576 83.0621 127.608C83.3719 127.689 83.5991 127.818 83.7431 127.918C83.888 128.02 83.953 128.094 83.9469 128.101C83.9316 128.128 83.6343 127.851 83.0362 127.717C82.8887 127.691 82.7149 127.652 82.568 127.702C82.4963 127.726 82.4493 127.78 82.4496 127.847C82.4483 127.911 82.4995 127.988 82.568 128.045C82.8595 128.27 83.3626 128.34 83.7392 128.11C84.1159 127.885 84.2711 127.386 84.1283 127.045C84.0928 126.964 84.0343 126.892 83.9693 126.863C83.9053 126.835 83.8343 126.851 83.7847 126.903C83.6794 127.012 83.6557 127.19 83.6371 127.337C83.5767 127.946 83.7741 128.309 83.7418 128.315Z" fill="#263238"/>
<path d="M91.4337 112.422L82.8878 106.669L85.716 78.8952L77.6209 74.1678L70.2184 72.4526C70.2184 72.4526 67.1265 78.8843 65.7518 83.0018C62.8276 91.7586 60.7752 94.8968 61.2443 101.244C61.3928 103.253 68.8113 108.279 73.4964 111.071C73.5608 111.712 73.6427 112.272 73.7451 112.734C75.346 119.971 80.2328 129.596 80.2328 129.596L87.6596 126.143L85.2632 117.936L87.7592 119.392L91.4337 112.422ZM73.0638 94.5128L74.0609 90.061C73.85 92.8914 73.6574 95.8446 73.5195 98.6763C73.0395 97.3675 72.876 95.9131 73.0638 94.5128Z" fill="#2B44FF"/>
<path d="M80.2315 129.595C80.229 129.596 80.2095 129.556 80.1739 129.478C80.1362 129.392 80.0853 129.276 80.02 129.128C79.8856 128.811 79.6927 128.355 79.4459 127.773C78.9525 126.595 78.2463 124.886 77.3963 122.766C76.5512 120.643 75.5445 118.116 74.5307 115.269C74.2783 114.557 74.0306 113.823 73.7979 113.065C73.6949 112.681 73.5656 112.303 73.4981 111.897C73.4786 111.797 73.4559 111.696 73.4395 111.595L73.404 111.292C73.3813 111.09 73.3589 110.886 73.3359 110.682C73.2488 109.864 73.1768 109.03 73.1234 108.182C73.0965 107.758 73.0735 107.331 73.0568 106.9C73.0415 106.471 73.0219 106.033 73.0469 105.597C73.1723 102.107 73.4658 98.799 73.7071 95.7878C73.9586 92.7798 74.1851 90.07 74.3755 87.7916C74.5599 85.5151 74.6888 83.6716 74.7618 82.3967C74.8015 81.7593 74.8235 81.2643 74.8386 80.9283C74.8475 80.7663 74.8543 80.6396 74.8594 80.5462C74.8648 80.4601 74.8693 80.4163 74.8719 80.4163C74.8744 80.4163 74.8757 80.4604 74.8757 80.5468C74.8744 80.6403 74.8728 80.767 74.8709 80.9292C74.8661 81.2655 74.8543 81.7615 74.8239 82.3996C74.7698 83.6761 74.6581 85.5219 74.4879 87.7999C74.3071 90.0793 74.092 92.79 73.8533 95.7993C73.6203 98.8095 73.3311 102.121 73.2063 105.6C73.1816 106.034 73.2008 106.463 73.2159 106.893C73.2325 107.322 73.2549 107.749 73.2815 108.171C73.3343 109.017 73.4053 109.849 73.4911 110.665C73.5135 110.869 73.5359 111.072 73.5583 111.274L73.5931 111.576C73.6095 111.675 73.6315 111.772 73.6501 111.87C73.7141 112.261 73.8427 112.642 73.9439 113.021C74.1736 113.775 74.4191 114.508 74.6693 115.22C75.6738 118.066 76.6696 120.597 77.501 122.724C78.3442 124.84 79.0274 126.555 79.5032 127.749C79.7381 128.336 79.9218 128.795 80.0498 129.115C80.109 129.266 80.155 129.384 80.189 129.471C80.2197 129.552 80.2341 129.594 80.2315 129.595Z" fill="#455A64"/>
<path d="M74.52 79.478C74.513 79.4863 74.4451 79.4313 74.3251 79.3203C74.2138 79.2031 74.0787 79.006 73.9638 78.7395C73.7338 78.2047 73.617 77.4067 73.5997 76.5359C73.5837 75.663 73.6483 74.8767 73.7056 74.3107C73.7645 73.7446 73.8128 73.3961 73.8339 73.3977C73.8563 73.3993 73.8477 73.752 73.8176 74.3193C73.7891 74.8867 73.7427 75.6697 73.7584 76.5327C73.7757 77.3935 73.8733 78.1744 74.0685 78.6985C74.1661 78.96 74.28 79.1558 74.3725 79.2806C74.473 79.3984 74.5267 79.4697 74.52 79.478Z" fill="#455A64"/>
<path d="M71.3237 72.8677C71.3397 72.8642 71.4169 73.1589 71.3874 73.6447C71.3609 74.1259 71.1967 74.8037 70.7749 75.4232C70.3525 76.0427 69.782 76.4434 69.3436 76.6443C68.902 76.8495 68.5999 76.8856 68.5973 76.8693C68.5897 76.8431 68.8783 76.7682 69.293 76.5439C69.7058 76.3234 70.2402 75.9256 70.6437 75.3336C71.0469 74.7416 71.2217 74.0991 71.2757 73.6341C71.3324 73.1663 71.2965 72.8703 71.3237 72.8677Z" fill="#455A64"/>
<path d="M84.6046 89.0151C84.6075 89.0155 84.6069 89.0439 84.603 89.0999C84.5976 89.1646 84.5909 89.2459 84.5822 89.347C84.5592 89.5755 84.5275 89.8926 84.4872 90.2951C84.3963 91.1303 84.2667 92.3175 84.1077 93.7799C83.7736 96.731 83.3141 100.788 82.8069 105.269C82.6107 107.513 82.8066 109.672 83.2277 111.575C83.4357 112.528 83.7115 113.413 84.0014 114.232C84.2888 115.053 84.5566 115.818 84.8018 116.517C85.2834 117.907 85.6747 119.035 85.9499 119.829C86.0792 120.212 86.181 120.514 86.2546 120.732C86.2853 120.828 86.3102 120.906 86.3301 120.968C86.3464 121.021 86.3531 121.049 86.3506 121.05C86.348 121.051 86.3358 121.025 86.3147 120.973C86.291 120.913 86.2613 120.837 86.2245 120.742C86.1442 120.527 86.0331 120.228 85.8917 119.849C85.6053 119.06 85.1976 117.937 84.6962 116.554C84.4456 115.856 84.1717 115.094 83.8776 114.276C83.5813 113.457 83.2984 112.565 83.0853 111.606C82.6533 109.692 82.451 107.516 82.6488 105.255C83.1486 100.762 83.6453 96.7083 83.9963 93.7681C84.1768 92.3083 84.323 91.123 84.4261 90.2891C84.4792 89.8878 84.5208 89.5716 84.5509 89.3438C84.5659 89.2433 84.5778 89.1627 84.5874 89.0983C84.596 89.043 84.6021 89.0148 84.6046 89.0151Z" fill="#455A64"/>
<path d="M70.2176 72.3997L71.5283 69.0503L74.5197 73.5108L70.5315 72.5137" fill="#FFBE9D"/>
<path d="M101.521 62.3314L97.9705 54.3727C97.5462 53.093 96.75 52.8943 96.0831 52.1519L87.1894 47.1359C80.7078 44.4812 77.1788 53.3845 77.1788 53.3845L71.2876 66.822C64.3599 69.1186 69.2652 74.4393 69.2652 74.4393C69.2652 74.4393 67.3807 71.1637 69.2338 69.982C71.1743 68.7445 73.3257 72.0047 75.3926 75.1013C77.8329 78.757 85.7625 81.1317 85.7625 81.1317C86.6902 80.1519 86.4306 76.7314 87.1567 74.8956C87.3871 74.3135 92.8783 61.5945 92.8783 61.5945L95.007 66.7516C95.007 66.7516 97.7356 63.5525 99.0578 63.0441C100.38 62.5349 101.521 62.3314 101.521 62.3314Z" fill="#FF9B21"/>
<path d="M85.7629 67.9872C85.7681 67.9956 85.6749 68.0663 85.4938 68.1751C85.313 68.2842 85.0394 68.4244 84.6845 68.5584C83.9812 68.8295 82.9165 69.0397 81.762 68.8615C80.6071 68.6832 79.6554 68.1617 79.0663 67.6913C78.7687 67.4564 78.5501 67.2404 78.4106 67.0817C78.2708 66.9233 78.2033 66.8276 78.2106 66.8212C78.2327 66.8004 78.5316 67.162 79.1341 67.6013C79.7297 68.0404 80.6637 68.5309 81.7863 68.7044C82.9085 68.8775 83.9469 68.6916 84.6471 68.4525C85.354 68.2154 85.7482 67.9607 85.7629 67.9872Z" fill="#263238"/>
<path d="M71.0235 55.3664L76.5121 55.8841L85.2923 46.6038L80.1284 46.4265L70.9326 47.334C70.9326 47.334 71.747 51.167 71.0235 55.3664Z" fill="#FF9B21"/>
<path d="M78.6478 50.4766C78.6526 50.4792 78.6293 50.5377 78.5806 50.6469C78.523 50.7707 78.4501 50.9275 78.3605 51.1205C78.1592 51.5502 77.883 52.1397 77.5461 52.8593C76.8635 54.3301 75.9579 56.3787 74.9765 58.6504C73.995 60.923 73.1019 62.979 72.427 64.4546C72.0901 65.1928 71.812 65.7873 71.612 66.1947C71.5173 66.3854 71.4401 66.5403 71.3793 66.6625C71.3246 66.7688 71.2936 66.8235 71.2885 66.8209C71.2833 66.8187 71.3048 66.7595 71.3502 66.6488C71.404 66.523 71.4721 66.364 71.5557 66.1685C71.7457 65.7336 72.0059 65.1371 72.324 64.4085C72.9729 62.9013 73.8552 60.8517 74.8302 58.5867C75.812 56.3144 76.7349 54.2709 77.444 52.811C77.7976 52.0805 78.0917 51.4933 78.3048 51.0923C78.4053 50.9048 78.4872 50.7522 78.5518 50.6318C78.6101 50.5278 78.6427 50.4744 78.6478 50.4766Z" fill="#263238"/>
<path d="M95.3985 53.1753C95.4138 53.2022 95.0734 53.3798 94.609 53.775C94.3751 53.9702 94.1217 54.231 93.8673 54.5421C93.6202 54.8589 93.3764 55.2288 93.1713 55.6448C92.9719 56.0637 92.8324 56.4845 92.7367 56.8745C92.6503 57.2669 92.6023 57.6275 92.594 57.9318C92.5716 58.5411 92.6429 58.9181 92.6122 58.9229C92.6013 58.9248 92.5783 58.8323 92.5454 58.6617C92.5271 58.5766 92.5095 58.472 92.5025 58.3485C92.4938 58.2256 92.475 58.0851 92.4817 57.9296C92.4756 57.6182 92.5127 57.247 92.5937 56.8425C92.6836 56.4403 92.8228 56.0057 93.0279 55.5753C93.2388 55.1478 93.4935 54.7693 93.7534 54.4496C94.0206 54.1353 94.289 53.8765 94.5373 53.6883C94.6554 53.5865 94.777 53.5142 94.8791 53.4451C94.9802 53.3744 95.0737 53.3232 95.1518 53.2848C95.3063 53.2048 95.3934 53.1654 95.3985 53.1753Z" fill="#263238"/>
<path d="M96.9313 40.4291L91.7822 50.0537C90.9416 51.6253 89.0289 52.279 87.4024 51.551C85.6113 50.7497 84.8702 48.6003 85.7876 46.8659C86.2731 45.9478 86.676 45.1981 86.676 45.1981C86.676 45.1981 84.4372 43.7472 85.4843 41.3283C86.4184 39.1702 89.8475 33.079 90.5758 31.791L94.9156 33.7331C97.3528 34.9993 98.2644 38.0278 96.9313 40.4291Z" fill="#FFBE9D"/>
<path d="M86.6897 45.1624C86.6897 45.1624 88.1547 45.9662 90.2247 45.6744C90.2247 45.6744 88.7086 47.074 86.4052 45.7832L86.6897 45.1624Z" fill="#EB996E"/>
<path d="M88.3408 37.4673C88.2531 37.6459 88.3321 37.8673 88.5168 37.9623C88.7011 38.0571 88.9219 37.9895 89.0096 37.811C89.0973 37.6324 89.0182 37.411 88.8339 37.3163C88.6493 37.2212 88.4281 37.2887 88.3408 37.4673Z" fill="#263238"/>
<path d="M88.3634 37.1605C88.3861 37.2242 88.7324 37.1483 89.1016 37.3147C89.4728 37.4757 89.6591 37.7874 89.7192 37.7598C89.748 37.7486 89.7407 37.6485 89.661 37.5096C89.5832 37.372 89.422 37.1998 89.1912 37.0978C88.9605 36.996 88.7288 36.9941 88.5788 37.0309C88.4261 37.067 88.3512 37.131 88.3634 37.1605Z" fill="#263238"/>
<path d="M91.7979 39.1678C91.7102 39.3464 91.7893 39.5678 91.9742 39.6626C92.1585 39.7573 92.3793 39.6898 92.467 39.5112C92.5547 39.3326 92.4757 39.1109 92.2913 39.0162C92.1064 38.9214 91.8856 38.9893 91.7979 39.1678Z" fill="#263238"/>
<path d="M91.9633 38.8554C91.986 38.9194 92.3326 38.8432 92.7015 39.0096C93.0727 39.1706 93.259 39.4823 93.3194 39.4547C93.3479 39.4435 93.3412 39.3434 93.2612 39.2042C93.1831 39.0666 93.0222 38.8944 92.7914 38.7923C92.5604 38.6906 92.329 38.6887 92.1786 38.7255C92.0263 38.7623 91.9514 38.8259 91.9633 38.8554Z" fill="#263238"/>
<path d="M89.3968 40.9969C89.408 40.9768 89.1958 40.834 88.8448 40.62C88.7548 40.5681 88.6739 40.5092 88.6867 40.4376C88.695 40.3595 88.7801 40.2753 88.8748 40.186C89.0659 39.9972 89.2659 39.7995 89.4758 39.5921C90.3215 38.7422 90.9788 38.0264 90.9443 37.9924C90.9097 37.9588 90.1964 38.6203 89.3507 39.4702C89.1443 39.6808 88.9475 39.8814 88.7596 40.0737C88.6758 40.1649 88.56 40.2593 88.5449 40.4222C88.5388 40.5041 88.5852 40.5864 88.6384 40.6296C88.6905 40.675 88.7433 40.7 88.7888 40.7236C89.1542 40.9115 89.3859 41.0174 89.3968 40.9969Z" fill="#263238"/>
<path d="M90.3701 41.7392C90.3115 41.7088 90.1314 42.1098 89.6603 42.241C89.1896 42.3731 88.7819 42.1366 88.7538 42.1914C88.7368 42.2141 88.8143 42.312 88.9925 42.3977C89.1669 42.4832 89.4511 42.5421 89.7391 42.4617C90.0267 42.3808 90.221 42.1881 90.3087 42.0294C90.3989 41.8685 90.3986 41.7491 90.3701 41.7392Z" fill="#263238"/>
<path d="M92.5163 37.3648C92.5077 37.4816 92.8981 37.5991 93.3087 37.8455C93.724 38.0835 94.0168 38.3671 94.1147 38.3027C94.1599 38.2711 94.141 38.1491 94.0431 37.9885C93.9464 37.8285 93.764 37.6362 93.5167 37.4906C93.269 37.3456 93.012 37.2803 92.8255 37.2739C92.6376 37.2669 92.5221 37.3101 92.5163 37.3648Z" fill="#263238"/>
<path d="M88.9778 36.1509C89.0053 36.2639 89.2988 36.2907 89.6069 36.4239C89.9196 36.5461 90.1471 36.7333 90.2463 36.6722C90.2914 36.6411 90.2882 36.5387 90.2104 36.4088C90.1343 36.2795 89.9765 36.1314 89.7631 36.0434C89.5496 35.956 89.3333 35.9503 89.1884 35.9887C89.0418 36.0267 88.9676 36.0971 88.9778 36.1509Z" fill="#263238"/>
<path d="M95.3136 41.8733C95.3625 41.8739 97.1852 42.1242 96.3968 43.7453C95.6083 45.3664 94.1433 44.2403 94.1632 44.1927C94.183 44.1447 95.3136 41.8733 95.3136 41.8733Z" fill="#FFBE9D"/>
<path d="M94.9556 43.8194C94.9652 43.8178 94.9742 43.853 95.0113 43.8981C95.0475 43.9419 95.1204 43.9957 95.2203 44.005C95.4222 44.0255 95.6987 43.8235 95.8484 43.5352C95.9243 43.3896 95.9617 43.2341 95.9662 43.0923C95.9745 42.9496 95.938 42.8296 95.8593 42.7723C95.7832 42.7106 95.6971 42.7327 95.6548 42.7685C95.611 42.8034 95.6056 42.8405 95.5956 42.8392C95.5892 42.8411 95.5739 42.7951 95.6196 42.7346C95.642 42.7058 95.6795 42.6767 95.7329 42.6642C95.7873 42.6514 95.8523 42.6632 95.9092 42.6987C96.0302 42.7682 96.0865 42.9378 96.082 43.0936C96.084 43.2533 96.0452 43.4296 95.9601 43.5931C95.7908 43.9147 95.475 44.1391 95.2075 44.093C95.0792 44.0674 95.0004 43.9867 94.97 43.9243C94.9396 43.86 94.9486 43.8197 94.9556 43.8194Z" fill="#EB996E"/>
<path d="M96.2542 42.2254C96.0305 42.0526 95.4929 42.0898 95.2811 42.277C95.0689 42.4638 94.9262 42.7195 94.7147 42.9067C94.5029 43.0939 94.1669 43.1986 93.9422 43.027C93.7873 42.9086 93.7361 42.6907 93.7675 42.4984C93.7989 42.3058 93.8987 42.1323 94.0001 41.9656C94.4408 41.2408 94.9432 40.5515 95.3201 39.7918C95.6971 39.0322 95.9467 38.179 95.8353 37.3384C95.724 36.4974 95.195 35.6792 94.3953 35.396C93.8657 35.2085 93.2776 35.2651 92.7381 35.109C92.0984 34.924 91.5569 34.4264 91.3182 33.8046C91.2875 33.725 91.1067 33.4408 91.1067 33.4408C91.1246 33.4011 91.316 33.0744 91.5073 33.0098C92.9317 32.5288 94.8635 33.0811 96.0443 34.0117C97.2251 34.9422 98.052 36.4398 98.0664 37.9429C98.0801 39.4462 97.1342 41.1045 96.2542 42.2254Z" fill="#263238"/>
<path d="M96.2711 42.0628C96.7214 41.2971 97.4522 40.7415 98.0103 40.0503C98.5681 39.3588 98.9514 38.3844 98.5543 37.5899C98.4186 37.3182 98.2014 37.0907 98.0881 36.8091C97.9742 36.5259 97.9738 36.2123 97.93 35.9102C97.7946 34.9767 97.2046 34.1198 96.3806 33.6606C95.811 33.3428 95.1534 33.2126 94.5761 32.9092C93.6618 32.4286 92.993 31.5377 92.0324 31.1579C91.7137 31.0318 91.3406 30.9707 91.0356 31.1278C90.731 31.2849 90.5674 31.7268 90.7895 31.9883C90.7502 31.6817 90.3527 31.5134 90.0708 31.6407C89.7892 31.7681 89.6449 32.1035 89.6641 32.4119C89.6833 32.7204 89.8362 33.0049 90.0132 33.2583C90.5966 34.0939 91.4887 34.7083 92.4772 34.9553L94.6862 34.7831L96.497 36.1252L97.8375 38.2583L95.4071 41.4158L96.2711 42.0628Z" fill="#263238"/>
<path d="M82.4493 29.4713C82.1715 25.1718 78.4608 21.9116 74.1613 22.1894C69.8617 22.4671 66.6016 26.1778 66.8793 30.4774C67.0806 33.5903 69.0816 36.157 71.8022 37.2319C71.8617 38.1545 71.9289 39.1958 71.9289 39.1958L78.7523 38.7548C78.7523 38.7548 78.7222 37.6498 78.6739 36.6649C81.0976 35.2102 82.6441 32.4866 82.4493 29.4713Z" fill="#77A8AF"/>
<path d="M76.2828 38.8824C76.2828 38.8824 76.2815 38.8494 76.2844 38.7857C76.2876 38.7182 76.2921 38.6241 76.2982 38.5028C76.3123 38.2542 76.3327 37.8878 76.3711 37.4164C76.4102 36.9451 76.4652 36.3684 76.5715 35.7041C76.6809 35.0414 76.8396 34.2868 77.1379 33.492C77.2873 33.0948 77.4636 32.6865 77.703 32.2856C77.8265 32.0891 77.9846 31.8948 78.2044 31.7732C78.4239 31.6504 78.7071 31.6318 78.9452 31.7496C79.063 31.8078 79.1663 31.9121 79.2115 32.0417C79.2611 32.1688 79.2575 32.3176 79.2047 32.4433C79.1004 32.6974 78.8819 32.8836 78.6367 33.0004C78.1343 33.2136 77.5388 33.2065 77.0108 32.9905C76.4812 32.7748 76.0399 32.322 75.8278 31.7627C75.7254 31.4846 75.6595 31.1768 75.7238 30.8676C75.7775 30.5611 76.0537 30.2718 76.3961 30.2811C76.5657 30.2827 76.726 30.388 76.8102 30.53C76.8975 30.6712 76.9286 30.8427 76.9036 31.0059C76.8495 31.3355 76.631 31.5937 76.4063 31.8148C75.942 32.252 75.2883 32.5204 74.6259 32.4587C73.9679 32.3966 73.3551 32.004 73.0479 31.4337C72.8883 31.154 72.8316 30.8056 72.9343 30.4942C72.9862 30.3406 73.0959 30.1931 73.2534 30.1278C73.4079 30.0564 73.5894 30.0737 73.7356 30.1409C73.8835 30.2072 74.0076 30.324 74.0863 30.4612C74.1676 30.5979 74.2111 30.7508 74.2342 30.9019C74.2758 31.2056 74.2521 31.5115 74.1734 31.7992C74.0201 32.3758 73.6476 32.8782 73.1603 33.1755C72.6751 33.476 72.0963 33.5848 71.5638 33.5009C71.3007 33.4603 71.0287 33.3739 70.839 33.1745C70.6534 32.98 70.5839 32.6574 70.7475 32.4273C70.8291 32.3166 70.958 32.252 71.0863 32.2337C71.2153 32.2161 71.3455 32.234 71.4623 32.282C71.7007 32.3812 71.8559 32.5864 71.9734 32.7854C72.1964 33.195 72.3798 33.595 72.5641 33.9764C73.2879 35.5054 73.8134 36.7697 74.167 37.6462C74.3436 38.0846 74.4755 38.4273 74.5641 38.66C74.6063 38.7739 74.639 38.8619 74.6627 38.9252C74.6844 38.9854 74.6931 39.0168 74.6931 39.0168C74.6931 39.0168 74.678 38.9876 74.6534 38.9288C74.6278 38.866 74.5919 38.779 74.5462 38.6667C74.4502 38.4328 74.311 38.0942 74.1324 37.66C73.7683 36.788 73.2339 35.5284 72.503 34.0052C72.318 33.627 72.1295 33.2222 71.9097 32.8225C71.7958 32.6296 71.6454 32.4388 71.4335 32.3528C71.2281 32.2676 70.9491 32.2862 70.8115 32.4737C70.6764 32.66 70.7331 32.9476 70.8985 33.1176C71.0678 33.2955 71.3225 33.379 71.5769 33.4171C72.0895 33.4961 72.6483 33.3899 73.1139 33.0996C73.5811 32.8132 73.9382 32.3297 74.0851 31.7745C74.1606 31.498 74.1823 31.2027 74.1423 30.9147C74.1033 30.6315 73.9647 30.3416 73.6972 30.2251C73.5689 30.1668 73.4182 30.1537 73.2915 30.2129C73.1622 30.2667 73.0707 30.3873 73.0239 30.524C72.9327 30.8033 72.9807 31.1243 73.1321 31.3873C73.422 31.9265 74.0092 32.3038 74.6348 32.362C75.2652 32.4216 75.8947 32.1646 76.3411 31.7444C76.5587 31.532 76.7641 31.282 76.8102 30.9908C76.8323 30.8488 76.8044 30.699 76.7302 30.5787C76.6575 30.458 76.5308 30.3758 76.3929 30.3739C76.2553 30.3691 76.1167 30.4296 76.014 30.524C75.9094 30.6171 75.8447 30.7483 75.8147 30.8868C75.7551 31.1665 75.8153 31.4632 75.9135 31.7294C76.1158 32.2657 76.5388 32.7012 77.0451 32.9083C77.5487 33.1176 78.1283 33.1233 78.6015 32.9233C78.8313 32.8158 79.0367 32.6376 79.1286 32.4129C79.2271 32.1896 79.1222 31.9185 78.9091 31.8196C78.7004 31.7147 78.439 31.7288 78.2415 31.8398C78.0383 31.9512 77.8867 32.1336 77.7657 32.3246C77.5302 32.715 77.3513 33.123 77.2015 33.5153C76.9014 34.3028 76.7385 35.0526 76.6246 35.7124C76.5135 36.3736 76.4534 36.9489 76.4086 37.419C76.3692 37.8868 76.3388 38.2516 76.3177 38.5035C76.3078 38.6244 76.3001 38.7182 76.2947 38.7857C76.2883 38.85 76.2828 38.8824 76.2828 38.8824Z" fill="#263238"/>
<path d="M78.3076 40.0519L72.4494 40.4305C72.2065 40.4462 71.9969 40.2622 71.9812 40.0193C71.9656 39.7764 72.1496 39.5668 72.3924 39.5511L78.2507 39.1726C78.4936 39.1569 78.7032 39.3409 78.7189 39.5838C78.7345 39.8266 78.5505 40.0362 78.3076 40.0519Z" fill="#263238"/>
<path d="M78.3332 40.4362L72.475 40.8148C72.2321 40.8305 72.0481 41.0401 72.0638 41.283C72.0794 41.5258 72.289 41.7098 72.5319 41.6942L73.1748 41.6526L74.1329 43.2212C74.2426 43.4007 74.4426 43.5044 74.6522 43.491L76.7457 43.3556C76.9575 43.3418 77.1441 43.2106 77.2286 43.0158L77.953 41.3438L78.3902 41.3156C78.633 41.2999 78.817 41.0903 78.8014 40.8474C78.7854 40.6046 78.5761 40.4206 78.3332 40.4362Z" fill="#263238"/>
<g opacity="0.2">
<path d="M69.3425 25.3371C69.8346 24.82 70.3613 24.4453 70.8346 24.2001C71.3079 23.9537 71.7194 23.8225 72.0119 23.7739C72.3047 23.7243 72.474 23.7419 72.4922 23.803C72.5351 23.9422 71.9585 24.1899 71.1978 24.7723C70.4394 25.3432 69.5057 26.3166 68.9898 27.6405C68.4778 28.9659 68.5108 30.3147 68.6858 31.2478C68.8548 32.1912 69.1137 32.7624 68.9879 32.8363C68.9332 32.8689 68.7962 32.7678 68.6135 32.5339C68.4305 32.3006 68.2148 31.9265 68.0317 31.4254C67.8477 30.9253 67.7114 30.2936 67.6967 29.5797C67.6807 28.8673 67.7985 28.0728 68.0961 27.2939" fill="white"/>
</g>
<g opacity="0.2">
<path d="M74.3863 24.0174C73.8925 24.0446 73.4484 23.938 73.3812 23.6798C73.3511 23.5518 73.4333 23.4078 73.6045 23.2884C73.7748 23.1694 74.0343 23.0782 74.3293 23.0606C74.6244 23.0433 74.8929 23.1028 75.0759 23.2007C75.2602 23.299 75.3591 23.4321 75.3444 23.563" fill="white"/>
</g>
<path d="M77.1283 43.162C77.1222 43.1771 76.9706 43.1192 76.7178 43.0641C76.4656 43.0084 76.1082 42.9672 75.7158 43.003C75.3238 43.0404 74.9802 43.1476 74.7427 43.2491C74.5046 43.3502 74.3664 43.435 74.3578 43.4216C74.3517 43.4132 74.4778 43.307 74.7146 43.1873C74.9501 43.0673 75.3024 42.946 75.7072 42.9073C76.112 42.8702 76.4806 42.924 76.7344 42.9979C76.9891 43.0718 77.1328 43.1528 77.1283 43.162Z" fill="#455A64"/>
<path d="M77.9661 41.3626C77.9677 41.3889 76.9101 41.4788 75.6038 41.5633C74.2973 41.6478 73.2368 41.6948 73.2352 41.6682C73.2336 41.642 74.2909 41.5521 75.5977 41.4676C76.904 41.3831 77.9645 41.3361 77.9661 41.3626Z" fill="#455A64"/>
<path d="M77.6447 42.0819C77.6463 42.0947 77.4274 42.1324 77.0715 42.1778C76.7157 42.2233 76.2232 42.2758 75.6776 42.319C75.132 42.3619 74.637 42.3875 74.2786 42.398C73.9202 42.4089 73.6981 42.406 73.6975 42.3929C73.6968 42.3795 73.9176 42.3583 74.2747 42.3302C74.6607 42.3007 75.1397 42.2639 75.6699 42.2233C76.1995 42.1804 76.6786 42.1417 77.0642 42.1103C77.4216 42.0822 77.6431 42.0684 77.6447 42.0819Z" fill="#455A64"/>
<path d="M35.4547 81.2728L36.7267 83.3109C36.7267 83.3109 42.1542 78.3163 47.5386 79.7282C47.5386 79.7282 42.6998 75.6251 35.4547 81.2728Z" fill="#77A8AF"/>
<path d="M47.5397 79.728C47.5397 79.728 51.5237 75.402 57.3653 76.3888L58.9583 76.6288L58.4495 75.7085C58.4495 75.7085 48.2898 72.2288 47.5397 79.728Z" fill="#77A8AF"/>
<path d="M39.1315 65.1401C39.1315 65.1401 31.1514 63.7673 25.9171 66.5989L34.2282 82.2469C34.2282 82.2469 41.031 75.6895 47.5408 79.7276L39.1315 65.1401Z" fill="#F5F5F5"/>
<path d="M39.1303 65.1405C39.1312 65.1389 39.1456 65.1604 39.1728 65.2042C39.2026 65.2535 39.242 65.3181 39.2925 65.4013C39.4 65.5831 39.5536 65.8429 39.7524 66.1789C40.1556 66.8695 40.7408 67.8714 41.4823 69.1412C42.969 71.705 45.0816 75.3488 47.6007 79.6928C47.6202 79.7264 47.6087 79.7696 47.5751 79.7888C47.552 79.8023 47.5239 79.8007 47.5024 79.7876C46.5997 79.2333 45.5626 78.8128 44.4429 78.6132C43.882 78.521 43.304 78.482 42.7181 78.4935C42.1325 78.5172 41.5408 78.5911 40.9511 78.7159C38.594 79.2388 36.304 80.5188 34.3501 82.2407L34.2816 82.3044C34.25 82.3348 34.1997 82.3338 34.1693 82.3024C34.1645 82.2973 34.1594 82.2903 34.1562 82.2845C31.0688 76.4605 28.2074 71.0624 25.8576 66.6301C25.8404 66.5991 25.8516 66.56 25.8826 66.5428L25.8842 66.5418C27.7143 65.5956 29.5712 65.1853 31.2036 64.9674C32.8432 64.7559 34.2832 64.7488 35.4602 64.7824C36.6381 64.8215 37.5572 64.9162 38.1802 64.993C38.4919 65.0308 38.7296 65.0672 38.8893 65.0938C38.9652 65.1072 39.0244 65.1178 39.0704 65.1261C39.1117 65.1341 39.1312 65.1389 39.1303 65.1405C39.1293 65.1418 39.1076 65.1399 39.0676 65.1354C39.0215 65.1296 38.9623 65.1226 38.8864 65.1133C38.7261 65.0935 38.4877 65.0634 38.1757 65.0317C37.552 64.9674 36.634 64.8852 35.4583 64.8573C34.2839 64.8352 32.8484 64.8525 31.2176 65.0724C29.5946 65.298 27.7517 65.7156 25.9469 66.6567L25.9735 66.5687C28.33 70.9972 31.2004 76.3908 34.297 82.21L34.1716 82.1901L34.2426 82.1239C35.2276 81.2416 36.3047 80.5021 37.4244 79.8916C38.5463 79.2864 39.7223 78.8234 40.9184 78.5655C41.5168 78.4397 42.1178 78.3655 42.7133 78.3424C43.3092 78.3316 43.897 78.3722 44.4679 78.4672C45.6074 78.6727 46.6618 79.1034 47.576 79.6682L47.4778 79.7632C44.9863 75.4157 42.8964 71.7693 41.426 69.2032C40.697 67.9223 40.1216 66.9111 39.7252 66.2141C39.5322 65.8711 39.3831 65.6055 39.2788 65.4196C39.2311 65.3325 39.194 65.2647 39.1658 65.2132C39.1412 65.1664 39.129 65.1421 39.1303 65.1405Z" fill="#263238"/>
<path d="M51.6759 61.9289C51.6759 61.9289 45.6395 58.0816 39.2346 65.1398L47.6439 79.727C47.6439 79.727 49.3601 73.8064 59.3995 75.8656L51.6759 61.9289Z" fill="#F5F5F5"/>
<path d="M51.675 61.9295C51.6763 61.9282 51.6897 61.9487 51.715 61.9906C51.7428 62.038 51.779 62.0998 51.8257 62.1794C51.9249 62.3535 52.0664 62.6015 52.2491 62.9222C52.62 63.582 53.1576 64.5385 53.8388 65.7506C55.2033 68.1983 57.1435 71.678 59.4596 75.8322C59.4785 75.8658 59.4664 75.9084 59.4328 75.9273C59.4184 75.9353 59.4024 75.9378 59.3873 75.9353L59.3844 75.9346C58.8955 75.8543 58.3972 75.7724 57.8897 75.6889C57.6369 75.638 57.378 75.6239 57.1176 75.6031C56.8571 75.5823 56.5944 75.5615 56.3297 75.5404C56.0651 75.5094 55.7976 75.5158 55.5281 75.5209C55.2587 75.5244 54.9873 75.5276 54.7137 75.5311C54.4404 75.5375 54.1684 75.5868 53.8929 75.6124C53.6184 75.6473 53.3384 75.662 53.0676 75.7369C52.7944 75.7986 52.5195 75.8607 52.2427 75.9234C51.9752 76.0169 51.7064 76.111 51.436 76.2057C51.1652 76.2994 50.9163 76.4486 50.6529 76.5679C50.5195 76.6255 50.3972 76.7033 50.2763 76.7839L49.9083 77.0198C49.6657 77.1817 49.4484 77.381 49.2193 77.5654C49.0177 77.7794 48.7905 77.9727 48.6142 78.213C48.2369 78.6674 47.9147 79.1913 47.7195 79.749L47.7179 79.7532C47.7035 79.7945 47.658 79.8162 47.6168 79.8018C47.5982 79.7954 47.5835 79.7823 47.5742 79.7666C47.467 79.581 47.3512 79.3801 47.2353 79.1785C44.2619 74.0114 41.4913 69.1964 39.1761 65.173C39.1611 65.1474 39.1656 65.1154 39.1844 65.0946C40.6065 63.5439 42.1758 62.3606 43.74 61.6697C45.3006 60.9615 46.8232 60.7852 48.0369 60.8633C49.2587 60.9388 50.1844 61.2364 50.7857 61.4793C51.0881 61.6012 51.3102 61.7157 51.458 61.7954C51.5268 61.8357 51.5809 61.8671 51.6228 61.8914C51.659 61.9161 51.6763 61.9282 51.675 61.9295C51.6737 61.9308 51.6539 61.9209 51.6171 61.901C51.5742 61.8789 51.5192 61.8508 51.4484 61.8146C51.298 61.741 51.0737 61.6332 50.7707 61.518C50.1675 61.2882 49.2443 61.0053 48.0324 60.9417C46.8283 60.8757 45.3243 61.0607 43.7838 61.7702C42.2398 62.4623 40.69 63.6409 39.283 65.1855L39.2913 65.1071C41.6129 69.127 44.3908 73.9375 47.3723 79.1001C47.4884 79.3014 47.6043 79.5023 47.7112 79.6882L47.5662 79.7058C47.7752 79.1087 48.1028 78.5836 48.491 78.1138C48.6724 77.8674 48.9044 77.6694 49.1118 77.4502C49.346 77.2614 49.5694 77.0575 49.8174 76.8921L50.1937 76.6514C50.3179 76.5692 50.443 76.4902 50.5787 76.4313C50.8472 76.3094 51.1019 76.1577 51.3777 76.0626C51.6532 75.9666 51.9272 75.8713 52.1995 75.7766C52.4804 75.7132 52.7598 75.6505 53.0372 75.5881C53.3128 75.5122 53.596 75.4978 53.874 75.463C54.1531 75.437 54.4289 75.3881 54.7051 75.382C54.9812 75.3791 55.2555 75.3759 55.5278 75.373C55.8001 75.3682 56.0702 75.3625 56.3368 75.3941C56.6036 75.4159 56.8683 75.4377 57.131 75.4591C57.3934 75.4806 57.6548 75.4959 57.9086 75.5474C58.419 75.6326 58.9204 75.7164 59.412 75.7986L59.3368 75.901C57.0449 71.7404 55.1249 68.2553 53.7745 65.8037C53.1067 64.5817 52.58 63.6172 52.2164 62.9522C52.0408 62.6258 51.9044 62.3727 51.8091 62.1954C51.7659 62.1129 51.7323 62.0486 51.7064 61.9993C51.6846 61.9542 51.6737 61.9308 51.675 61.9295Z" fill="#263238"/>
<path d="M28.1649 59.0774L37.1645 76.4057C37.1645 76.4057 44.4788 76.0857 47.5745 79.6502L39.234 65.1401C39.234 65.1401 34.3431 59.0774 28.1649 59.0774Z" fill="#F5F5F5"/>
<path d="M28.1645 59.0772C28.1645 59.0772 28.2388 59.0785 28.3927 59.0845C28.5562 59.0913 28.7876 59.1005 29.0864 59.113C29.1629 59.1175 29.2452 59.1185 29.3296 59.1274C29.4132 59.1412 29.5008 59.1556 29.5924 59.1706C29.7767 59.2013 29.9773 59.2346 30.194 59.2708C30.4135 59.297 30.6391 59.3706 30.8832 59.4352C31.1248 59.5088 31.3911 59.5585 31.6551 59.6637C33.8058 60.3796 36.6903 62.1143 39.2839 65.0993L39.2887 65.1057L39.2896 65.1076C41.6644 69.2305 44.5389 74.2218 47.6426 79.6103C47.6644 79.6484 47.6516 79.6967 47.6135 79.7188C47.5818 79.737 47.5428 79.7309 47.5181 79.7063L47.514 79.7021C47.4026 79.5914 47.282 79.4714 47.161 79.3511C46.4916 78.7021 45.6992 78.1901 44.8573 77.8285C44.0199 77.4586 43.1549 77.1725 42.2829 76.985C40.5434 76.5943 38.8074 76.4471 37.1674 76.4797H37.1655C37.1364 76.4804 37.1108 76.4641 37.0983 76.4397C34.4746 71.3521 32.2333 67.0058 30.6445 63.9245C29.8608 62.3978 29.2381 61.1847 28.808 60.3466C28.5991 59.9377 28.4372 59.6202 28.3242 59.3991C28.2724 59.2964 28.2324 59.2167 28.2023 59.1569C28.1754 59.1031 28.1626 59.0762 28.1645 59.0772C28.1664 59.0781 28.1828 59.1076 28.2132 59.1636C28.2461 59.225 28.2896 59.3066 28.346 59.4119C28.464 59.6356 28.6333 59.9559 28.8512 60.3693C29.2919 61.2077 29.9296 62.4215 30.7325 63.9495C32.3322 67.0077 34.5888 71.3217 37.2304 76.3713L37.1613 76.3313C38.8202 76.2951 40.5607 76.4404 42.3181 76.8327C43.1981 77.0209 44.073 77.3092 44.9229 77.6842C45.7767 78.0506 46.586 78.5716 47.2727 79.2375C47.3965 79.361 47.5204 79.4842 47.6346 79.5978L47.5056 79.6893C44.4112 74.2954 41.545 69.2993 39.1773 65.1725L39.1831 65.1809C37.9162 63.6916 36.5351 62.5252 35.2439 61.6164C33.9405 60.7207 32.7008 60.098 31.6314 59.7338C31.3696 59.6266 31.106 59.5748 30.8666 59.4986C30.6247 59.4314 30.4007 59.3553 30.1831 59.3265C29.968 59.2874 29.7687 59.2513 29.586 59.218C29.4948 59.2013 29.4077 59.1853 29.3248 59.1703C29.2423 59.1601 29.1639 59.1578 29.09 59.1514C28.5402 59.1076 28.2848 59.0868 28.1645 59.0772Z" fill="#263238"/>
<path d="M56.2564 108.224L56.4497 108.545C56.6667 108.905 56.9822 109.196 57.3592 109.382L57.6952 109.548L57.3739 109.741C57.0136 109.958 56.7227 110.274 56.5364 110.651L56.3704 110.987L56.1771 110.666C55.9601 110.306 55.6446 110.015 55.2676 109.828L54.9316 109.662L55.2526 109.469C55.6129 109.252 55.9038 108.937 56.09 108.56L56.2564 108.224Z" fill="white" fill-opacity="0.16"/>
<path d="M38.5138 42.2183L38.707 42.5392C38.924 42.8995 39.2395 43.1904 39.6165 43.3767L39.9525 43.5427L39.6315 43.736C39.2712 43.953 38.9803 44.2685 38.7938 44.6455L38.6277 44.9815L38.4344 44.6605C38.2174 44.3002 37.9019 44.0093 37.525 43.8231L37.189 43.657L37.5102 43.4637C37.8706 43.2467 38.1614 42.9312 38.3477 42.5543L38.5138 42.2183Z" fill="white" fill-opacity="0.16"/>
<path d="M120.621 53.6074L120.814 53.9287C121.031 54.289 121.347 54.5799 121.724 54.7661L122.06 54.9322L121.739 55.1255C121.379 55.3425 121.088 55.658 120.901 56.0349L120.735 56.3709L120.542 56.05C120.325 55.6897 120.009 55.3988 119.632 55.2125L119.296 55.0465L119.617 54.8532C119.978 54.6362 120.268 54.3207 120.455 53.9437L120.621 53.6074Z" fill="white" fill-opacity="0.16"/>
<path d="M110.927 112.37L111.12 112.691C111.337 113.051 111.653 113.342 112.03 113.529L112.366 113.695L112.045 113.888C111.684 114.105 111.393 114.42 111.207 114.797L111.041 115.133L110.848 114.812C110.631 114.452 110.315 114.161 109.938 113.975L109.602 113.809L109.924 113.615C110.284 113.398 110.575 113.083 110.761 112.706L110.927 112.37Z" fill="white" fill-opacity="0.16"/>
<path d="M112.771 124.718L112.863 124.755C112.967 124.797 113.08 124.808 113.19 124.787L113.288 124.769L113.251 124.861C113.21 124.965 113.198 125.079 113.219 125.189L113.238 125.287L113.145 125.249C113.042 125.208 112.928 125.197 112.818 125.217L112.72 125.236L112.757 125.144C112.799 125.04 112.81 124.926 112.789 124.816L112.771 124.718Z" fill="white" fill-opacity="0.16"/>
<path d="M118.356 41.22L118.449 41.2571C118.552 41.299 118.666 41.3099 118.776 41.2891L118.874 41.2705L118.837 41.363C118.795 41.4667 118.784 41.5806 118.805 41.6904L118.823 41.7883L118.731 41.7512C118.627 41.7092 118.513 41.6984 118.403 41.7192L118.305 41.7377L118.343 41.6452C118.384 41.5412 118.395 41.428 118.375 41.3179L118.356 41.22Z" fill="white" fill-opacity="0.16"/>
<path d="M42.1237 33.5964L42.2162 33.6336C42.3199 33.6752 42.4335 33.6864 42.5436 33.6656L42.6415 33.647L42.6044 33.7395C42.5628 33.8432 42.5515 33.9571 42.5723 34.0668L42.5909 34.1648L42.4984 34.1276C42.3944 34.0857 42.2808 34.0748 42.1711 34.0956L42.0732 34.1142L42.1103 34.0217C42.1522 33.918 42.1631 33.8044 42.1423 33.6944L42.1237 33.5964Z" fill="white" fill-opacity="0.16"/>
<path d="M51.531 98.6111L51.6235 98.6482C51.7272 98.6898 51.8411 98.701 51.9509 98.6802L52.0488 98.6617L52.0117 98.7541C51.9697 98.8578 51.9589 98.9717 51.9797 99.0815L51.9982 99.1794L51.9057 99.1423C51.8021 99.1004 51.6881 99.0895 51.5784 99.1103L51.4805 99.1288L51.5176 99.0364C51.5592 98.9327 51.5704 98.8191 51.5496 98.709L51.531 98.6111Z" fill="white" fill-opacity="0.16"/>
<path d="M61.7307 123.741C61.7307 123.741 61.7029 123.774 61.6433 123.834C61.579 123.898 61.491 123.986 61.3774 124.098C61.1365 124.333 60.7893 124.671 60.3435 125.105C59.4357 125.981 58.1278 127.242 56.5077 128.805L56.5227 128.768C56.7051 132.783 56.9528 138.24 57.2286 144.309L57.235 144.447L57.1205 144.37C56.6805 144.076 56.2097 143.761 55.7355 143.444C52.5758 141.329 49.5851 139.327 46.9531 137.565L46.9352 137.553L46.9285 137.533C45.6181 133.619 44.5128 130.319 43.7326 127.989C43.3496 126.831 43.0462 125.914 42.8366 125.281C42.7365 124.971 42.6587 124.731 42.6043 124.562C42.5803 124.484 42.5614 124.424 42.547 124.376C42.5345 124.335 42.5291 124.313 42.5307 124.312C42.5323 124.312 42.5409 124.332 42.5566 124.373C42.5736 124.419 42.5953 124.479 42.6235 124.555C42.6824 124.723 42.7662 124.961 42.8744 125.268C43.0917 125.899 43.4062 126.812 43.8037 127.965C44.5953 130.291 45.7173 133.586 47.0472 137.493L47.0225 137.461C49.6568 139.219 52.6504 141.218 55.8126 143.329C56.2869 143.646 56.7576 143.961 57.1976 144.255L57.0894 144.316C56.8296 138.246 56.5957 132.788 56.4238 128.772L56.4229 128.75L56.4392 128.734C58.0725 127.185 59.3905 125.935 60.3057 125.067C60.7592 124.641 61.1128 124.309 61.3579 124.079C61.4757 123.97 61.5669 123.886 61.6334 123.824C61.6961 123.767 61.7307 123.741 61.7307 123.741Z" fill="white" fill-opacity="0.16"/>
<path d="M57.6417 142.482L57.6139 143.388L58.3444 143.925L57.474 144.178L57.1892 145.039L56.6795 144.289L55.7729 144.284L56.3281 143.568L56.0526 142.704L56.9057 143.011L57.6417 142.482Z" fill="white" fill-opacity="0.16"/>
<path d="M47.0635 136.334L47.0811 136.92L47.5742 137.238L47.0219 137.436L46.8718 138.003L46.5128 137.539L45.9272 137.572L46.2574 137.087L46.0456 136.54L46.6088 136.704L47.0635 136.334Z" fill="white" fill-opacity="0.16"/>
<path d="M42.5046 123.236L42.9471 123.804L43.6659 123.762L43.2623 124.358L43.5247 125.028L42.8329 124.829L42.2764 125.286L42.2524 124.566L41.646 124.178L42.3228 123.932L42.5046 123.236Z" fill="white" fill-opacity="0.16"/>
<path d="M61.2891 122.668L61.7314 123.236L62.4501 123.194L62.0466 123.79L62.309 124.461L61.6171 124.261L61.0606 124.718L61.0366 123.998L60.4302 123.61L61.107 123.365L61.2891 122.668Z" fill="white" fill-opacity="0.16"/>
<path d="M56.3573 128.155L56.6399 128.518L57.0984 128.49L56.8408 128.871L57.0085 129.299L56.5669 129.172L56.2117 129.463L56.1964 129.004L55.8095 128.756L56.2415 128.6L56.3573 128.155Z" fill="white" fill-opacity="0.16"/>
<path d="M39.4212 103.954C42.9461 103.954 45.8036 101.097 45.8036 97.5716C45.8036 94.0467 42.9461 91.1892 39.4212 91.1892C35.8963 91.1892 33.0388 94.0467 33.0388 97.5716C33.0388 101.097 35.8963 103.954 39.4212 103.954Z" fill="#77A8AF"/>
<g opacity="0.3">
<path d="M38.5915 99.5639C38.5915 100.139 38.1256 100.605 37.5505 100.605C36.9755 100.605 36.5096 100.139 36.5096 99.5639C36.5096 98.9892 36.9755 98.5229 37.5505 98.5229C38.1256 98.5229 38.5915 98.9889 38.5915 99.5639Z" fill="white"/>
</g>
<g opacity="0.3">
<path d="M37.1162 96.5593C37.1162 96.8937 36.8451 97.1647 36.5107 97.1647C36.1763 97.1647 35.9053 96.8937 35.9053 96.5593C35.9053 96.2249 36.1763 95.9539 36.5107 95.9539C36.8451 95.9539 37.1162 96.2249 37.1162 96.5593Z" fill="white"/>
</g>
<path d="M33.2296 99.1238C33.2581 99.2345 27.7672 104.503 29.1825 105.626C30.5979 106.748 36.5521 103.868 41.6277 99.7689C46.7032 95.6694 51.3397 90.6912 50.0709 89.3734C48.8021 88.0556 42.4587 91.9571 42.4587 91.9571L43.2168 92.4403C43.2168 92.4403 47.052 89.9798 48.2651 90.9347C49.4782 91.8899 46.02 95.6198 41.1397 99.1827C36.2593 102.746 31.5435 105.246 30.8117 104.27C30.0795 103.294 33.5339 100.038 33.5339 100.038L33.2296 99.1238Z" fill="#77A8AF"/>
<g opacity="0.3">
<path d="M33.2296 99.1238C33.2581 99.2345 27.7672 104.503 29.1825 105.626C30.5979 106.748 36.5521 103.868 41.6277 99.7689C46.7032 95.6694 51.3397 90.6912 50.0709 89.3734C48.8021 88.0556 42.4587 91.9571 42.4587 91.9571L43.2168 92.4403C43.2168 92.4403 47.052 89.9798 48.2651 90.9347C49.4782 91.8899 46.02 95.6198 41.1397 99.1827C36.2593 102.746 31.5435 105.246 30.8117 104.27C30.0795 103.294 33.5339 100.038 33.5339 100.038L33.2296 99.1238Z" fill="black"/>
</g>
<g opacity="0.3">
<path d="M35.9055 93.0761C35.9571 93.1376 35.5244 93.5049 35.0348 94.2419C34.5449 94.9676 34.0326 96.1168 34.0044 97.4496C33.9795 98.783 34.4457 99.952 34.9062 100.697C35.366 101.452 35.7836 101.836 35.7295 101.896C35.6972 101.94 35.1843 101.644 34.6166 100.892C34.334 100.518 34.0524 100.027 33.8415 99.4393C33.63 98.8528 33.4995 98.1657 33.5103 97.4397C33.5286 96.7142 33.6863 96.0333 33.9209 95.4553C34.1551 94.8761 34.4559 94.3971 34.7532 94.0348C35.3503 93.3062 35.8748 93.0304 35.9055 93.0761Z" fill="white"/>
</g>
<path d="M113.392 41.5892C115.491 39.5774 115.562 36.2448 113.55 34.1455C111.539 32.0462 108.206 31.9753 106.107 33.987C104.008 35.9988 103.937 39.3314 105.948 41.4307C107.96 43.53 111.293 43.6009 113.392 41.5892Z" fill="#77A8AF"/>
<g opacity="0.4">
<path d="M111.465 35.7758C111.476 35.3016 111.869 34.9265 112.343 34.9377C112.817 34.9489 113.193 35.3425 113.181 35.8165C113.17 36.2904 112.777 36.6657 112.303 36.6545C111.828 36.6433 111.453 36.2497 111.465 35.7758Z" fill="black"/>
</g>
<g opacity="0.4">
<path d="M113.182 37.7803C113.188 37.5045 113.418 37.2862 113.693 37.2926C113.969 37.299 114.188 37.5281 114.181 37.804C114.174 38.0798 113.945 38.2981 113.67 38.2913C113.394 38.2849 113.176 38.0561 113.182 37.7803Z" fill="black"/>
</g>
<g opacity="0.4">
<path d="M112.512 39.314C112.614 39.3166 112.694 39.4007 112.692 39.5025C112.689 39.6042 112.605 39.6846 112.503 39.6823C112.402 39.6798 112.321 39.5956 112.324 39.4938C112.326 39.3921 112.41 39.3118 112.512 39.314Z" fill="black"/>
</g>
</svg>
