<svg width="103" height="134" viewBox="0 0 103 134" fill="none" xmlns="http://www.w3.org/2000/svg">
<g opacity="0.1">
<path d="M109.865 6.81478C96.7236 -0.866194 81.0738 -1.90538 66.6954 2.9467C61.7903 4.60206 57.11 6.93424 52.8639 9.89893C48.4654 12.97 45.1655 17.1609 41.2572 20.7839C37.3041 24.4483 33.2113 28.0142 28.5654 30.7836C22.0141 34.6891 14.3847 37.0238 8.91967 42.3439C2.90604 48.1981 0.431892 56.8845 0.0546334 65.2688C-0.26344 72.3372 0.777925 79.5767 3.95358 85.8993C7.27447 92.5106 12.7732 97.8271 18.8784 102.006C26.7913 107.423 35.8757 111.119 45.3224 112.766C64.084 116.038 83.6369 111.121 100.3 101.898C110.177 96.4324 119.321 89.3734 126.08 80.3319C132.838 71.2904 137.092 60.152 136.784 48.8677C136.309 31.4931 124.871 15.5861 109.865 6.81478Z" fill="#ECDEFF"/>
<path d="M40.0963 17.2217C41.3232 15.5014 42.4622 13.6209 42.7149 11.5229C42.9673 9.42458 42.1151 7.06481 40.2222 6.12475C38.3374 5.18832 35.9526 5.92323 34.4297 7.37598C32.9066 8.82874 32.0805 10.8548 31.4266 12.8551C30.1699 16.6992 29.2422 20.941 26.2408 23.6522C25.5473 24.2789 24.7517 24.8116 24.2031 25.5683C22.9068 27.3562 24.2205 29.225 26.2571 29.4375C28.0345 29.623 29.5475 27.9411 30.8155 26.9281C34.3346 24.1163 37.4776 20.8938 40.0963 17.2217Z" fill="#ECDEFF"/>
<path d="M101.865 17.5777C102.394 17.5814 102.94 17.5821 103.427 17.3751C104.273 17.0156 104.757 16.1014 104.938 15.2009C105.135 14.2249 105.037 13.1592 104.502 12.3201C103.966 11.4809 102.946 10.9236 101.965 11.0939C100.984 11.2642 100.173 12.2627 100.355 13.2416C99.9801 12.5005 98.7213 12.4856 98.3291 13.2173C98.2089 12.0441 96.6625 11.3829 95.6171 11.9279C94.5714 12.4733 94.1593 13.864 94.5024 14.9921C93.7189 14.4224 92.4099 14.9801 92.2781 15.9398C91.9524 15.6413 91.6823 15.2615 91.2789 15.0818C90.8755 14.9021 90.2745 15.0622 90.219 15.5001C89.7876 15.1025 89.1333 14.9645 88.5781 15.1548C88.023 15.3447 87.5905 15.8548 87.4936 16.4336C87.2623 17.813 88.3203 17.6119 89.1551 17.4953C90.5062 17.3068 92.025 17.5069 93.3903 17.5167C96.2148 17.5374 99.0401 17.5574 101.865 17.5777Z" fill="white"/>
<path d="M14.4037 36.9452C14.9327 36.9488 15.4792 36.9495 15.9658 36.7425C16.8114 36.3831 17.2958 35.4688 17.477 34.5683C17.6734 33.5923 17.5761 32.5266 17.0405 31.6875C16.505 30.8484 15.4846 30.291 14.5039 30.4613C13.5232 30.6316 12.712 31.6301 12.8936 32.609C12.5189 31.868 11.26 31.8531 10.8679 32.5847C10.7477 31.4115 9.20124 30.7503 8.15588 31.2954C7.11016 31.8407 6.69804 33.2314 7.04117 34.3595C6.2576 33.7898 4.94864 34.3476 4.81683 35.3072C4.49113 35.0088 4.22099 34.6289 3.81759 34.4492C3.41419 34.2695 2.81326 34.4296 2.75771 34.8675C2.32635 34.4699 1.67204 34.3319 1.11686 34.5222C0.561688 34.7121 0.129238 35.2223 0.0322911 35.801C-0.199002 37.1804 0.859067 36.9793 1.69347 36.8627C3.04455 36.6743 4.56339 36.8743 5.92864 36.8842C8.75354 36.9048 11.5784 36.9248 14.4037 36.9452Z" fill="#ECDEFF"/>
<path d="M14.8341 54.2515C14.2353 54.2558 13.6173 54.2562 13.0665 54.022C12.1098 53.6153 11.5615 52.5809 11.3563 51.5616C11.1341 50.4575 11.2441 49.2512 11.8501 48.3017C12.4562 47.3522 13.6108 46.7215 14.7208 46.914C15.8308 47.1064 16.7483 48.2368 16.5428 49.3446C16.9669 48.5058 18.3914 48.4891 18.8351 49.3173C18.9712 47.9898 20.721 47.2415 21.904 47.8584C23.0873 48.4753 23.5535 50.0493 23.1654 51.326C24.0521 50.6815 25.5331 51.3126 25.6824 52.3986C26.0505 52.0609 26.3566 51.6314 26.813 51.4277C27.2695 51.224 27.9495 51.4055 28.0124 51.9011C28.5004 51.4509 29.2407 51.2951 29.8689 51.5101C30.497 51.725 30.9865 52.302 31.0962 52.957C31.3576 54.518 30.1604 54.2903 29.2164 54.1585C27.6878 53.945 25.9688 54.1716 24.4242 54.1828C21.2275 54.2057 18.0308 54.2286 14.8341 54.2515Z" fill="white"/>
</g>
<path d="M49.4571 85.1398C37.0493 85.1398 30.9373 73.8805 30.6835 73.4012C30.1069 72.3134 30.5212 70.9641 31.6087 70.3878C32.6958 69.812 34.0418 70.2241 34.6198 71.3087C34.8341 71.707 39.7765 80.682 49.4571 80.682C50.688 80.682 51.6862 81.6798 51.6862 82.9111C51.6862 84.1416 50.688 85.1398 49.4571 85.1398Z" fill="#DDA38C"/>
<path d="M57.4486 114.536C57.4486 114.536 57.9439 119.233 66.9443 119.233C75.9444 119.233 77.1191 114.536 77.1191 114.536H57.4486Z" stroke="#244E80" stroke-width="0.343641" stroke-miterlimit="10"/>
<path d="M75.6774 116.15H58.2135C56.2343 116.15 54.6148 114.531 54.6148 112.552V103.896C54.6148 101.916 56.2343 100.297 58.2135 100.297H75.6774C77.6567 100.297 79.2761 101.916 79.2761 103.896V112.552C79.2761 114.531 77.6567 116.15 75.6774 116.15Z" fill="white" stroke="#244E80" stroke-width="0.343641" stroke-miterlimit="10"/>
<path d="M78.5046 101.681L54.615 105.617V106.854L79.1099 102.819C78.9778 102.402 78.7697 102.018 78.5046 101.681Z" fill="#DEEEFC"/>
<path d="M79.2762 104.229L54.615 108.292V109.529L79.2762 105.466V104.229Z" fill="#DEEEFC"/>
<path d="M54.615 112.202L79.2762 108.139V106.902L54.615 110.965V112.202Z" fill="#DEEEFC"/>
<path d="M55.3755 114.752L79.2771 110.814V109.577L54.7767 113.614C54.9064 114.031 55.113 114.414 55.3755 114.752Z" fill="#DEEEFC"/>
<path d="M58.2122 116.151H63.109L79.1405 113.51C79.2254 113.204 79.2744 112.884 79.2744 112.552V112.251L56.9722 115.925C57.36 116.069 57.7765 116.151 58.2122 116.151Z" fill="#DEEEFC"/>
<path d="M78.5046 101.681L54.615 105.617V106.854L79.1099 102.819C78.9778 102.402 78.7697 102.018 78.5046 101.681Z" stroke="#244E80" stroke-width="0.343641" stroke-miterlimit="10"/>
<path d="M79.2762 104.229L54.615 108.292V109.529L79.2762 105.466V104.229Z" stroke="#244E80" stroke-width="0.343641" stroke-miterlimit="10"/>
<path d="M54.615 112.202L79.2762 108.139V106.902L54.615 110.965V112.202Z" stroke="#244E80" stroke-width="0.343641" stroke-miterlimit="10"/>
<path d="M55.3755 114.752L79.2771 110.814V109.577L54.7767 113.614C54.9064 114.031 55.113 114.414 55.3755 114.752Z" stroke="#244E80" stroke-width="0.343641" stroke-miterlimit="10"/>
<path d="M58.2122 116.151H63.109L79.1405 113.51C79.2254 113.204 79.2744 112.884 79.2744 112.552V112.251L56.9722 115.925C57.36 116.069 57.7765 116.151 58.2122 116.151Z" stroke="#244E80" stroke-width="0.343641" stroke-miterlimit="10"/>
<path d="M75.6774 116.15H58.2135C56.2343 116.15 54.6148 114.531 54.6148 112.552V103.896C54.6148 101.916 56.2343 100.297 58.2135 100.297H75.6774C77.6567 100.297 79.2761 101.916 79.2761 103.896V112.552C79.2761 114.531 77.6567 116.15 75.6774 116.15Z" stroke="#244E80" stroke-width="0.343641" stroke-miterlimit="10"/>
<path d="M98.7484 52.2311C98.0454 42.312 91.9211 22.9636 68.0866 21.8016V21.7461C67.7017 21.7461 67.3219 21.7512 66.9454 21.7603C66.5692 21.7512 66.189 21.7461 65.8042 21.7461V21.8016C41.9697 22.9636 35.8453 42.3116 35.1424 52.2311C34.4176 62.4599 39.7334 70.4335 44.1632 78.4072C48.593 86.3808 50.2037 97.0526 50.8885 100.919C51.5733 104.784 55.0768 104.664 55.0768 104.664H65.8045H66.9457L68.087 104.664L78.8147 104.664C78.8147 104.664 82.3182 104.785 83.0027 100.919C83.6871 97.0526 85.2982 86.3808 89.728 78.4072C94.1577 70.4335 99.4735 62.4599 98.7484 52.2311Z" fill="#FBB040"/>
<path d="M72.9134 24.5138C72.1483 24.939 71.5855 25.5817 71.7482 26.3957C71.8401 26.8561 72.1284 27.253 72.4472 27.5976C73.5463 28.786 75.0575 29.5148 76.597 30.0155C77.1772 30.2043 77.7796 30.3658 78.3889 30.3335C78.9982 30.3012 79.6223 30.0467 79.9724 29.5467C80.3638 28.9879 80.346 28.2348 80.1735 27.5747C79.9095 26.5642 79.2309 25.9633 78.3962 25.3823C77.4543 24.7269 76.4565 24.0505 75.3145 23.9397C74.6664 23.8769 73.6864 24.0843 72.9134 24.5138Z" fill="#FCBC68"/>
<path d="M52.0464 81.1702C44.8665 69.2958 44.2165 59.4773 44.2165 59.4773C42.6719 39.9597 51.3917 28.6299 57.9435 22.967C40.5754 27.4898 35.7607 43.5064 35.1424 52.2309C34.4176 62.4598 39.7334 70.4334 44.1632 78.407C48.593 86.3806 50.2037 97.0525 50.8885 100.918C51.5733 104.784 55.0768 104.664 55.0768 104.664H55.1356C55.506 95.2863 54.9533 85.9776 52.0464 81.1702Z" fill="#FCBC68"/>
<path d="M47.8677 69.3499L40.5647 71.9896C41.2713 73.2931 42.0019 74.5814 42.7295 75.8631C46.4208 73.0291 47.8677 69.3499 47.8677 69.3499Z" fill="#E29A3B"/>
<path d="M118.243 44.6467H71.8108V91.079H118.243V44.6467Z" fill="white"/>
<path d="M98.7476 52.2304C98.5936 50.058 98.1797 47.4335 97.3765 44.6467H71.8108V91.079H84.9916C86.0326 86.9618 87.534 82.3537 89.7271 78.4061C94.1569 70.4328 99.4727 62.4592 98.7476 52.2304Z" fill="#DEEEFC"/>
<path d="M97.3785 44.6467C97.3785 44.6467 102.617 56.8806 93.1506 72.3137C93.1506 72.3137 89.0331 79.7187 86.6751 85.399" stroke="#244E80" stroke-width="0.343641" stroke-miterlimit="10" stroke-linejoin="round"/>
<path d="M100.632 55.209L88.9588 83.3611" stroke="#244E80" stroke-width="0.343641" stroke-miterlimit="10" stroke-linecap="round" stroke-linejoin="round"/>
<path d="M101.629 54.7975C101.468 55.186 101.022 55.3704 100.634 55.2092C100.245 55.048 100.061 54.6025 100.222 54.214C100.383 53.8255 100.829 53.641 101.217 53.8022C101.606 53.9634 101.79 54.4093 101.629 54.7975Z" fill="white" stroke="#244E80" stroke-width="0.343641" stroke-miterlimit="10" stroke-linecap="round" stroke-linejoin="round"/>
<path d="M89.3718 84.3558C89.2106 84.7443 88.765 84.9288 88.3765 84.7676C87.988 84.6064 87.8035 84.1608 87.9648 83.7723C88.126 83.3838 88.5715 83.1994 88.96 83.3606C89.3485 83.5218 89.533 83.9673 89.3718 84.3558Z" fill="white" stroke="#244E80" stroke-width="0.343641" stroke-miterlimit="10" stroke-linecap="round" stroke-linejoin="round"/>
<path d="M96.0185 68.8814L94.3882 68.0352L93.5419 69.6654L95.1722 70.5117L96.0185 68.8814Z" fill="white" stroke="#244E80" stroke-width="0.343641" stroke-miterlimit="10" stroke-linejoin="round"/>
<path d="M96.562 69.5371C96.3946 69.4746 96.2636 69.6888 96.3961 69.8094L99.2896 72.4415C99.4073 72.5486 99.416 72.7309 99.3089 72.8489C99.2018 72.9665 99.0195 72.9752 98.9015 72.8681L96.0083 70.2364C95.8761 70.1162 95.675 70.2665 95.7531 70.4274L97.8173 74.6767C97.8383 74.7199 97.8775 74.7519 97.924 74.7631L100.669 75.4472C100.727 75.4617 100.788 75.4432 100.828 75.3989L101.372 74.8009L101.447 74.7188L101.991 74.1208C102.031 74.0765 102.044 74.0141 102.024 73.9574L101.084 71.2894C101.068 71.244 101.033 71.208 100.988 71.1913L96.562 69.5371Z" fill="#244E80"/>
<path d="M102.493 74.2221L100.966 75.8999L101.741 76.6043L103.267 74.9265L102.493 74.2221Z" fill="#244E80"/>
<path d="M116.719 91.0791H72.829" stroke="#244E80" stroke-width="0.343641" stroke-miterlimit="10" stroke-dasharray="0.95 0.95"/>
<path d="M72.3256 91.0791H71.8107V90.5642" stroke="#244E80" stroke-width="0.343641" stroke-miterlimit="10"/>
<path d="M71.8107 89.5558V45.666" stroke="#244E80" stroke-width="0.343641" stroke-miterlimit="10" stroke-dasharray="0.95 0.95"/>
<path d="M71.8107 45.1614V44.6465H72.3256" stroke="#244E80" stroke-width="0.343641" stroke-miterlimit="10"/>
<path d="M73.334 44.6465H117.224" stroke="#244E80" stroke-width="0.343641" stroke-miterlimit="10" stroke-dasharray="0.95 0.95"/>
<path d="M60.8458 104.591C61.3164 97.6234 61.5651 93.9397 61.9333 88.4904C62.4987 80.1184 62.8218 70.9012 57.6676 64.2797C57.3532 63.876 56.9839 63.4628 56.4843 63.3538C55.4589 63.1298 54.6753 64.2521 54.3141 65.2376C53.5545 67.3094 53.2792 69.7396 54.4012 71.6397C55.3471 73.2417 57.115 74.1789 58.8866 74.7475C63.0586 76.0866 67.7385 75.7663 71.689 73.871" stroke="#244E80" stroke-width="0.343641" stroke-miterlimit="10" stroke-linejoin="round"/>
<path d="M82.5237 21.7458H52.0474" stroke="#244E80" stroke-width="0.343641" stroke-miterlimit="10" stroke-linecap="round" stroke-linejoin="round"/>
<path d="M83.2865 22.5072C82.8661 22.5072 82.5251 22.1663 82.5251 21.7458C82.5251 21.3253 82.8661 20.9844 83.2865 20.9844C83.707 20.9844 84.0479 21.3253 84.0479 21.7458C84.0479 22.1663 83.707 22.5072 83.2865 22.5072Z" fill="white" stroke="#244E80" stroke-width="0.343641" stroke-miterlimit="10" stroke-linecap="round" stroke-linejoin="round"/>
<path d="M51.2855 22.5072C50.865 22.5072 50.5241 22.1663 50.5241 21.7458C50.5241 21.3253 50.865 20.9844 51.2855 20.9844C51.706 20.9844 52.0469 21.3253 52.0469 21.7458C52.0469 22.1663 51.706 22.5072 51.2855 22.5072Z" fill="white" stroke="#244E80" stroke-width="0.343641" stroke-miterlimit="10" stroke-linecap="round" stroke-linejoin="round"/>
<path d="M43.773 31.334C43.773 31.334 50.8109 22.3241 65.8025 21.7449C65.8025 21.7449 80.1162 21.0184 89.8926 31.0958" stroke="#244E80" stroke-width="0.343641" stroke-miterlimit="10" stroke-linecap="round" stroke-linejoin="round"/>
<path d="M43.0668 122.032L43.501 123.041C43.501 123.041 47.2181 123.251 50.7002 120.102L49.2267 119.994L43.0668 122.032Z" fill="#171C27"/>
<path d="M26.8111 92.6963C26.8111 92.6963 24.6002 108.45 19.2612 119.843C19.2612 119.843 22.3646 121.683 25.3733 121.508C25.3733 121.508 31.1865 108.976 33.2899 93.4642L26.8111 92.6963Z" fill="#062538"/>
<path d="M23.8316 87.1609C23.8316 87.1609 23.6558 92.3506 25.9147 93.7852C28.1735 95.2198 40.3253 113.304 43.1103 121.983C43.1103 121.983 46.7391 122.224 49.2706 119.946C49.2706 119.946 41.5068 102.155 35.0934 92.6963C35.0934 92.6963 36.6562 89.6434 36.4746 86.6609L23.8316 87.1609Z" fill="#0A3759"/>
<path d="M19.2623 119.842L18.7761 120.661C18.7761 120.661 22.0465 122.811 26.1343 122.478L25.3747 121.507C25.3747 121.507 20.5662 120.385 19.2623 119.842Z" fill="#171C27"/>
<path d="M35.6534 73.1498L36.4748 86.6599C36.4748 86.6599 33.6843 88.7223 29.3551 88.8182C25.0259 88.9137 23.8317 87.1607 23.8317 87.1607C23.8317 87.1607 22.7482 73.9432 22.8542 73.7961C22.9603 73.6491 22.8662 69.2694 29.1529 69.2948C35.4392 69.3191 35.6534 73.1498 35.6534 73.1498Z" fill="#2481D3"/>
<path d="M35.5993 72.8237C31.6644 73.1066 25.7739 73.6055 24.7191 74.1185C24.7191 74.1185 29.8613 77.9133 35.9257 77.6159L35.6541 73.1498C35.6541 73.1498 35.6465 73.0256 35.5993 72.8237Z" fill="#1364A0"/>
<path d="M27.2096 65.7385L27.7242 69.4472L29.6489 70.7663L31.1681 69.5245L30.8588 67.294L27.2096 65.7385Z" fill="#EEB399"/>
<path d="M27.9302 67.5444L30.9693 68.104L31.1341 69.2913C29.4824 69.2997 27.9302 67.5444 27.9302 67.5444Z" fill="#CC957F"/>
<path d="M30.2962 68.7569L31.355 68.6099C32.795 68.4102 33.8099 67.0685 33.6102 65.6281L33.088 61.8635C32.8883 60.4235 31.5467 59.4086 30.1063 59.6083L29.0475 59.7554C27.6075 59.9551 26.5926 61.2967 26.7923 62.7368L27.3144 66.5014C27.5145 67.9418 28.8561 68.9567 30.2962 68.7569Z" fill="#EEB399"/>
<path d="M27.7602 62.3893C28.0957 62.5139 28.5027 62.4866 28.7743 62.2543C29.0463 62.0219 29.1236 61.5665 28.8894 61.2957C29.1933 61.4031 29.5241 61.4794 29.8367 61.4006C30.1494 61.3218 30.4318 61.0466 30.4235 60.7245C30.5996 60.8443 30.784 60.9674 30.995 60.9961C31.206 61.0248 31.4503 60.9264 31.5164 60.7242C31.7492 60.9032 32.0407 61.0045 32.3341 61.0085C32.5048 61.0106 32.6834 60.9772 32.8156 60.869C32.9434 60.7641 33.0117 60.6022 33.044 60.4399C33.1424 59.9453 32.9223 59.4021 32.5077 59.116C32.4035 59.0437 32.2836 58.986 32.1566 58.9846C32.0298 58.9831 31.8962 59.0499 31.8486 59.1672C31.5865 58.7391 31.137 58.4138 30.6374 58.3662C30.1377 58.3183 29.6054 58.5808 29.3945 59.0361C29.2932 58.8546 29.0804 58.7558 28.8723 58.7449C28.6646 58.7344 28.4602 58.7994 28.2685 58.8796C28.0147 58.9853 27.7674 59.1225 27.5826 59.3262C27.3982 59.5303 27.2827 59.8095 27.3248 60.0815C27.1168 60.0052 26.8909 60.1265 26.7159 60.2623C26.4617 60.4598 26.2315 60.7143 26.1582 61.0277C26.0848 61.3411 26.213 61.7172 26.5082 61.8454C26.2232 62.0451 26.0518 62.3973 26.0707 62.7452C26.0896 63.093 26.298 63.4245 26.603 63.5923C26.1923 63.8148 26.0983 64.4564 26.428 64.7876C26.2275 64.8758 26.1346 65.1314 26.1919 65.3428C26.2493 65.5541 26.4291 65.7171 26.6317 65.8003C26.8266 65.8805 27.0627 65.8929 27.2402 65.7788C27.4174 65.6652 27.4947 65.4201 27.388 65.2342C27.4054 65.2647 27.7725 64.8352 27.791 64.768C27.8448 64.5712 27.823 64.3054 27.8401 64.0973C27.8876 63.5273 27.8607 62.9518 27.7602 62.3893Z" fill="#171C27"/>
<path d="M26.4143 65.4138C26.4735 65.8401 26.8667 66.1374 27.293 66.0783C27.7193 66.0191 28.0167 65.6258 27.9575 65.1996C27.8983 64.7733 27.5051 64.4759 27.0788 64.5351C26.6525 64.5943 26.3551 64.9875 26.4143 65.4138Z" fill="#EEB399"/>
<path d="M28.3177 65.8283C28.4985 66.053 28.7131 66.2476 28.9277 66.4404C29.1517 66.642 29.3896 66.8497 29.6829 66.9183C30.0943 67.0149 30.5195 66.8155 30.8561 66.5599C31.1927 66.3043 31.4857 65.9866 31.8579 65.7858C32.3524 65.5193 32.9494 65.4866 33.4984 65.606C33.6382 65.6365 33.782 65.6798 33.8844 65.7796C33.9995 65.8922 34.0434 66.057 34.0764 66.2146C34.1763 66.6914 34.2213 67.1794 34.2104 67.6659C34.2032 67.9872 34.1694 68.3177 34.0209 68.6027C33.8237 68.981 33.4399 69.2385 33.0303 69.3587C32.6208 69.4789 32.1851 69.4752 31.7602 69.4346C30.5965 69.3238 29.4015 68.9019 28.6648 67.9941C28.3798 67.643 28.175 67.2342 27.9869 66.8224C27.7124 66.2211 27.4681 65.606 27.256 64.9801C27.167 64.7179 27.0625 64.3726 27.2088 64.1105C27.3664 63.828 27.5966 63.8512 27.6968 64.1388C27.7948 64.4202 27.7731 64.7412 27.8758 65.0305C27.9775 65.3196 28.1263 65.5904 28.3177 65.8283Z" fill="#171C27"/>
<path d="M44.3087 66.6851C36.4346 73.9158 27.5942 70.482 27.2003 70.3237C26.0634 69.8603 24.7653 70.3999 24.2958 71.5346C23.8253 72.6722 24.3659 73.9757 25.5039 74.4466C25.7432 74.5454 28.7071 75.7331 32.8679 75.7331C37.0057 75.7331 42.3269 74.5577 47.3239 69.9689C46.6732 67.7932 44.3087 66.6851 44.3087 66.6851Z" fill="#EEB399"/>
<path d="M31.3106 71.0963C28.9324 70.8635 27.3409 70.2463 27.1746 70.1795C25.9738 69.69 24.6028 70.2601 24.1068 71.4586C23.6097 72.6605 24.1809 74.0374 25.3827 74.5344C25.586 74.6183 27.6542 75.4458 30.7435 75.7664C31.4185 74.1438 31.3589 71.8976 31.3106 71.0963Z" fill="#2481D3"/>
<path d="M31.2211 71.0883C31.2211 71.0883 29.0596 70.9067 27.1755 70.1802" stroke="#1364A0" stroke-width="0.0974223" stroke-miterlimit="10" stroke-linecap="round" stroke-linejoin="round"/>
<path d="M46.0769 65.1188C46.2283 65.0062 46.3917 64.8936 46.5794 64.8733C46.7671 64.853 46.9821 64.9601 47.0159 65.1456C47.0674 65.4307 46.7058 65.6104 46.6034 65.8816C46.5268 66.085 46.6103 66.3177 46.745 66.4884C46.8797 66.6587 47.0609 66.7857 47.2185 66.935C47.9744 67.6525 48.0906 68.9447 47.4748 69.7853C47.3586 69.9436 47.2065 70.0939 47.013 70.1262C46.7682 70.1665 46.5391 70.0101 46.3405 69.8615C45.8075 69.4625 45.269 69.0587 44.8394 68.55C44.4524 68.0918 43.8722 67.273 44.2955 66.716C44.7567 66.1093 45.4694 65.5697 46.0769 65.1188Z" fill="#EEB399"/>
<path d="M103.217 25.6102L100.445 27.4961L104.757 28.6395V32.2843L106.862 29.7175L111.636 30.9314L116.36 20.4763L103.217 25.6102Z" fill="#A7A9AC"/>
<path d="M116.641 18.4568L100.251 25.7743L105.031 27.8109L116.641 18.4568Z" fill="white"/>
<path d="M102.775 33.2782C101.897 34.0617 100.841 34.6456 99.7072 34.9597C98.5082 35.2919 97.1644 35.3108 96.0787 34.7026C94.9934 34.0944 94.2756 32.7491 94.6539 31.564C95.0323 30.3788 96.6855 29.7242 97.6411 30.5204C98.4011 31.1537 98.4345 32.373 97.9559 33.239C97.4777 34.1049 96.6147 34.6841 95.7483 35.1619C93.2705 36.5286 90.4434 37.3478 87.6182 37.1855C85.1353 37.0428 82.6633 36.0947 80.8548 34.4052" stroke="#244E80" stroke-width="0.292232" stroke-linecap="round" stroke-linejoin="round" stroke-dasharray="0.97 0.97"/>
<path d="M80.4901 34.0457C80.3718 33.9219 80.2566 33.7948 80.1455 33.6641" stroke="#244E80" stroke-width="0.292232" stroke-linecap="round" stroke-linejoin="round"/>
<path d="M48.5597 52.9084C48.5597 49.7033 45.9614 47.105 42.7564 47.105C39.5513 47.105 36.953 49.7033 36.953 52.9084C36.953 55.3898 38.5136 57.5016 40.7045 58.3316L39.9427 60.3824L42.9078 58.7041C46.0424 58.6232 48.5597 56.0622 48.5597 52.9084Z" fill="white"/>
<path d="M43.8009 51.3552L40.9415 52.7884L42.6361 53.0324L43.29 54.4183L43.8009 51.3552Z" fill="#244E80"/>
<path d="M45.3342 55.3282H40.1757V50.1697H45.3342V55.3282ZM40.3209 55.183H45.1893V50.3146H40.3209V55.183Z" fill="#244E80"/>
<path d="M45.2615 50.5782C45.4475 50.5782 45.5984 50.4273 45.5984 50.2412C45.5984 50.0552 45.4475 49.9043 45.2615 49.9043C45.0754 49.9043 44.9245 50.0552 44.9245 50.2412C44.9245 50.4273 45.0754 50.5782 45.2615 50.5782Z" fill="#244E80"/>
<path d="M40.249 50.5782C40.4351 50.5782 40.5859 50.4273 40.5859 50.2412C40.5859 50.0552 40.4351 49.9043 40.249 49.9043C40.0629 49.9043 39.912 50.0552 39.912 50.2412C39.912 50.4273 40.0629 50.5782 40.249 50.5782Z" fill="#244E80"/>
<path d="M40.249 55.5921C40.4351 55.5921 40.5859 55.4413 40.5859 55.2552C40.5859 55.0691 40.4351 54.9182 40.249 54.9182C40.0629 54.9182 39.912 55.0691 39.912 55.2552C39.912 55.4413 40.0629 55.5921 40.249 55.5921Z" fill="#244E80"/>
<path d="M45.2615 55.5921C45.4475 55.5921 45.5984 55.4413 45.5984 55.2552C45.5984 55.0691 45.4475 54.9182 45.2615 54.9182C45.0754 54.9182 44.9245 55.0691 44.9245 55.2552C44.9245 55.4413 45.0754 55.5921 45.2615 55.5921Z" fill="#244E80"/>
<path d="M59.2302 123.987C59.2302 123.987 55.5379 124.011 55.677 120.598C55.677 120.598 55.5462 117.348 59.4942 117.509C59.4942 117.509 60.1874 122.151 59.2302 123.987Z" fill="#FF5252"/>
<path d="M63.2782 117.663L59.4944 117.509C59.4944 117.509 57.1593 120.645 59.2304 123.987L63.1029 124.145L63.2782 117.663Z" fill="#674A6C"/>
<path d="M115.652 119.795L63.2785 117.662C63.2785 117.662 60.719 121.023 63.0145 124.14L115.388 126.273L121.709 123.286L115.652 119.795Z" fill="#FBB040"/>
<path d="M62.4626 119.204L116.437 121.402L116.342 123.725L62.0639 121.514C62.0233 120.647 62.2179 119.848 62.4626 119.204Z" fill="#EFA33F"/>
<path d="M63.0145 124.142C62.3638 123.258 62.1038 122.355 62.0643 121.514L116.343 123.725C117.607 122.962 119.709 123.218 121.175 123.54L115.388 126.275L63.0145 124.142Z" fill="#DB9037"/>
<path d="M59.9406 117.729C59.9406 117.729 58.0511 120.427 59.6298 123.77C59.6298 123.77 58.3564 120.68 59.9406 117.729Z" fill="#36253A"/>
<path d="M60.6868 117.76C60.6868 117.76 58.7973 120.458 60.376 123.801C60.376 123.801 59.1023 120.711 60.6868 117.76Z" fill="#36253A"/>
<path d="M61.43 117.79C61.43 117.79 59.5404 120.488 61.1192 123.831C61.1192 123.831 59.8455 120.741 61.43 117.79Z" fill="#36253A"/>
<path d="M62.1761 117.819C62.1761 117.819 60.2866 120.518 61.8653 123.86C61.8653 123.86 60.5919 120.771 62.1761 117.819Z" fill="#36253A"/>
<path d="M102.431 122.34L104.236 119.331L78.7784 118.294L78.0007 124.752L100.054 125.65C101.29 123.875 102.431 122.34 102.431 122.34Z" fill="#D1D3D4"/>
<path d="M83.9411 132.38V133.482C83.9411 133.482 79.5519 134.336 75.5807 133.482L77.3897 132.38H83.9411Z" fill="#171C27"/>
<path d="M99.4827 114.869L99.6683 125.127L111.798 125.802C111.798 125.802 112.591 129.612 111.798 131.305H99.6683C99.6683 131.305 93.4412 132.42 93.0966 126.444C92.7524 120.467 92.7229 116.495 92.7229 116.495C92.7229 116.495 96.9549 114.358 99.4827 114.869Z" fill="#A05E47"/>
<path d="M99.6663 125.03L99.5512 118.672L92.7769 119.102C92.8186 120.577 92.892 122.617 93.0205 125.062C94.4529 125.356 96.9198 125.644 99.6663 125.03Z" fill="#82493A"/>
<path d="M99.6762 113.36C99.6762 113.36 101.095 117.903 98.4511 118.866C95.8074 119.828 83.3916 118.866 83.3916 118.866L83.9413 132.381C83.9413 132.381 80.4135 133.481 77.3896 132.381L76.9771 116.483C76.9771 116.483 76 111.933 84.8574 112.678L99.6762 113.36Z" fill="#A05E47"/>
<path d="M80.9432 113.139C80.9432 113.139 80.5416 117.628 83.5132 121.888L83.3901 118.865C83.3901 118.865 85.9957 119.066 89.073 119.192C89.0029 118.224 88.9059 117.533 88.9059 117.533L80.9432 113.139Z" fill="#82493A"/>
<path d="M80.9627 112.679C80.9627 112.679 80.1291 121.476 89.8837 122.48C98.9314 123.411 98.7251 123.953 101.95 123.272C102.37 123.184 102.606 122.733 102.433 122.34C101.726 120.74 100.134 116.85 99.6764 113.36L88.3009 112.679C88.3009 112.679 84.2066 112.441 80.9627 112.679Z" fill="#0D314C"/>
<path d="M80.8825 87.4304C80.7812 87.291 80.6701 87.1483 80.5122 87.0796C80.3542 87.0106 80.1378 87.0451 80.0579 87.1976C79.9352 87.4315 80.201 87.6871 80.2159 87.9507C80.2271 88.1486 80.0906 88.3287 79.9269 88.4402C79.7631 88.5516 79.571 88.6126 79.3927 88.6998C78.5387 89.1177 78.0849 90.2106 78.3913 91.1107C78.4491 91.2803 78.5405 91.4528 78.7003 91.5334C78.9022 91.6354 79.1444 91.5617 79.3579 91.4866C79.9309 91.2847 80.5096 91.0806 81.0227 90.7549C81.4849 90.4615 82.2133 89.9074 81.9969 89.3072C81.7612 88.6533 81.2878 87.9888 80.8825 87.4304Z" fill="#A05E47"/>
<path d="M98.3041 109.813C98.3389 109.813 98.3734 109.812 98.4083 109.81C100.163 109.724 101.491 109.171 102.354 108.163C103.129 107.258 103.324 106.173 103.249 105.459C103.241 105.384 103.229 105.31 103.214 105.236C102.436 101.636 99.5215 97.0058 99.3974 96.8108C98.7779 95.8311 97.4806 95.5389 96.4998 96.1601C95.5202 96.7803 95.2283 98.078 95.8481 99.058C96.5191 100.12 98.2667 103.171 98.9489 105.505C98.7888 105.551 98.5455 105.597 98.2039 105.614C97.0452 105.671 96.1516 106.656 96.2079 107.815C96.2627 108.939 97.1912 109.813 98.3041 109.813Z" fill="#E54C64"/>
<path d="M98.2048 105.614C97.0462 105.671 96.1526 106.656 96.2089 107.815C96.2637 108.938 97.1921 109.813 98.305 109.813C98.3399 109.813 98.3744 109.812 98.4092 109.811C99.7404 109.746 100.824 109.41 101.647 108.813C99.744 105.771 99.2698 99.8718 99.2698 99.8718L96.8287 100.737C97.5901 102.124 98.5004 103.969 98.9495 105.505C98.7898 105.552 98.5465 105.598 98.2048 105.614Z" fill="#CC3754"/>
<path d="M85.4685 95.6314L91.7388 95.4397C92.8956 95.3906 93.8673 96.3155 93.9025 97.4752C93.9377 98.6346 93.0263 99.6033 91.867 99.6389L84.3007 99.8702C84.279 99.8709 84.2579 99.8713 84.2361 99.8713C83.4667 99.8713 82.7565 99.4497 82.3887 98.7693L78.3579 91.3109C79.5612 90.528 82.0535 89.3135 82.0535 89.3135L85.4685 95.6314Z" fill="#E54C64"/>
<path d="M96.6701 91.6968L96.4784 95.3663L94.7075 96.8179L93.1172 95.7312L93.2323 93.5243L96.6701 91.6968Z" fill="#A05E47"/>
<path d="M93.8531 94.9034L92.9072 94.854C91.4541 94.7781 90.3274 93.5276 90.4033 92.0745L90.5924 88.4511C90.6683 86.9984 91.9188 85.8717 93.3719 85.9472L94.3178 85.9966C95.7709 86.0725 96.8976 87.323 96.8217 88.7761L96.6326 92.3994C96.5567 93.8522 95.3058 94.9792 93.8531 94.9034Z" fill="#A05E47"/>
<path d="M91.6772 87.6104C91.3312 87.6373 91.2157 88.1565 91.4434 88.4187C91.671 88.6808 92.0672 88.7164 92.4092 88.6579C92.3126 88.8453 92.2131 89.0599 92.2814 89.2592C92.3497 89.4589 92.6812 89.5424 92.7621 89.3478C92.6971 89.7774 92.6325 90.2073 92.5675 90.6368C92.5374 90.8376 92.508 91.0497 92.5835 91.2381C92.659 91.4266 92.8794 91.5732 93.0664 91.4937C93.4905 91.3144 93.0853 90.484 93.4923 90.2683C93.5642 90.2301 93.6484 90.2233 93.7298 90.2287C94.1775 90.2592 94.5529 90.7054 94.5057 91.1521C94.4585 91.5983 93.9985 91.9567 93.554 91.8931C93.4142 92.0326 93.3957 92.2766 93.5127 92.4356C93.6296 92.5946 93.8678 92.6498 94.0428 92.558C93.9222 92.9047 94.1092 93.3288 94.4465 93.4733C94.7839 93.6178 95.2203 93.461 95.3881 93.1349C95.7032 93.5038 96.2206 93.6876 96.6981 93.6004C97.1756 93.5133 97.5946 93.1585 97.7594 92.7025C98.3451 92.786 98.9766 92.6814 99.4428 92.3172C99.909 91.9534 100.169 91.3038 99.9827 90.7425C100.531 90.5145 100.95 89.9978 101.059 89.4135C101.168 88.8293 100.964 88.1961 100.534 87.7858C101.421 86.6003 101.174 84.7227 100.01 83.8077C99.9348 82.7609 99.3128 81.6861 98.3059 81.3902C97.8742 81.2631 97.3132 81.3437 97.1222 81.7507C96.6411 81.4326 96.0979 81.1571 95.5217 81.1701C94.9454 81.1832 94.3438 81.571 94.2639 82.1421C93.8765 81.8103 93.2806 81.7478 92.8326 81.9918C92.3845 82.2358 92.114 82.7703 92.1823 83.2757C91.7396 83.1029 91.2004 83.2126 90.8609 83.5448C90.5211 83.877 90.3991 84.4133 90.5618 84.8596C90.5625 84.8617 90.1627 85.6166 90.1613 85.7964C90.1587 86.1351 90.3101 86.4383 90.3875 86.76C90.5156 87.2931 90.9532 88.3918 91.6772 87.6104Z" fill="#171C27"/>
<path d="M96.37 95.1884C96.37 95.1884 99.9317 95.1884 99.6611 99.0194C99.3906 102.85 98.8946 105.128 99.3456 107.613C99.7966 110.098 99.676 113.36 99.676 113.36C99.676 113.36 92.3128 115.771 88.3005 113.131C88.3005 113.131 88.8866 100.676 89.022 98.7606C89.1571 96.8452 90.9577 95.1692 93.8007 95.1884C96.6438 95.2076 96.6438 95.2076 96.6438 95.2076" fill="#E54C64"/>
<path d="M93.5633 113.206C97.1311 113.206 99.6869 111.927 99.7232 111.908C99.7577 111.891 99.7712 111.848 99.7537 111.814C99.7359 111.78 99.6927 111.766 99.6597 111.784C99.6078 111.81 94.4013 114.412 88.4752 112.128C88.4389 112.114 88.3986 112.132 88.3848 112.167C88.3706 112.204 88.3888 112.244 88.4251 112.258C90.2471 112.961 92.0023 113.206 93.5633 113.206Z" fill="#0D314C"/>
<path d="M99.6203 110.104C99.6214 110.104 99.6222 110.104 99.6236 110.104C99.6621 110.103 99.6922 110.07 99.6904 110.031C99.6356 108.793 99.4159 107.613 99.4137 107.601C99.0913 105.825 99.2522 104.19 99.4747 101.928C99.559 101.072 99.6545 100.103 99.7307 99.0248C99.7333 98.9863 99.7042 98.9529 99.6657 98.95C99.6345 98.9486 99.5938 98.9762 99.5909 99.015C99.515 100.091 99.4195 101.059 99.3357 101.914C99.1204 104.102 98.9501 105.83 99.2761 107.626C99.2787 107.638 99.4965 108.809 99.5506 110.037C99.5517 110.075 99.5826 110.104 99.6203 110.104Z" fill="#0D314C"/>
<path d="M99.3401 113.423C99.3785 113.423 99.4101 113.392 99.4101 113.353V112.375C99.4101 112.337 99.3789 112.305 99.3401 112.305C99.3016 112.305 99.27 112.336 99.27 112.375V113.353C99.27 113.392 99.3016 113.423 99.3401 113.423Z" fill="#0D314C"/>
<path d="M98.8777 113.369C98.9162 113.369 98.9478 113.337 98.9478 113.299V112.606C98.9478 112.568 98.9166 112.536 98.8777 112.536C98.8392 112.536 98.8076 112.567 98.8076 112.606V113.299C98.8076 113.337 98.8389 113.369 98.8777 113.369Z" fill="#0D314C"/>
<path d="M98.3813 113.617C98.4198 113.617 98.4514 113.586 98.4514 113.547V112.748C98.4514 112.709 98.4202 112.678 98.3813 112.678C98.3428 112.678 98.3112 112.709 98.3112 112.748V113.547C98.3112 113.586 98.3428 113.617 98.3813 113.617Z" fill="#0D314C"/>
<path d="M97.7942 113.723C97.8327 113.723 97.8643 113.692 97.8643 113.653V113.013C97.8643 112.975 97.833 112.943 97.7942 112.943C97.7557 112.943 97.7241 112.975 97.7241 113.013V113.653C97.7241 113.692 97.7557 113.723 97.7942 113.723Z" fill="#0D314C"/>
<path d="M97.2636 113.849C97.3021 113.849 97.3337 113.818 97.3337 113.779V113.067C97.3337 113.029 97.3025 112.997 97.2636 112.997C97.2251 112.997 97.1935 113.028 97.1935 113.067V113.779C97.1939 113.818 97.2251 113.849 97.2636 113.849Z" fill="#0D314C"/>
<path d="M96.7474 113.977C96.7858 113.977 96.8174 113.946 96.8174 113.907V113.192C96.8174 113.154 96.7862 113.122 96.7474 113.122C96.7089 113.122 96.6773 113.153 96.6773 113.192V113.907C96.6776 113.946 96.7089 113.977 96.7474 113.977Z" fill="#0D314C"/>
<path d="M96.1459 113.973C96.1844 113.973 96.216 113.942 96.216 113.903V113.226C96.216 113.188 96.1847 113.156 96.1459 113.156C96.1074 113.156 96.0758 113.187 96.0758 113.226V113.903C96.0758 113.942 96.1074 113.973 96.1459 113.973Z" fill="#0D314C"/>
<path d="M95.6297 114.007C95.6682 114.007 95.6998 113.976 95.6998 113.937V113.351C95.6998 113.313 95.6686 113.281 95.6297 113.281C95.5912 113.281 95.5596 113.312 95.5596 113.351V113.937C95.5596 113.976 95.5912 114.007 95.6297 114.007Z" fill="#0D314C"/>
<path d="M95.1702 114.189C95.2087 114.189 95.2402 114.158 95.2402 114.119V113.422C95.2402 113.383 95.209 113.352 95.1702 113.352C95.1317 113.352 95.1001 113.383 95.1001 113.422V114.119C95.1001 114.158 95.1317 114.189 95.1702 114.189Z" fill="#0D314C"/>
<path d="M94.5488 114.061C94.5873 114.061 94.6189 114.03 94.6189 113.991V113.547C94.6189 113.508 94.5877 113.477 94.5488 113.477C94.5104 113.477 94.4788 113.508 94.4788 113.547V113.991C94.4788 114.03 94.5104 114.061 94.5488 114.061Z" fill="#0D314C"/>
<path d="M94.1234 114.203C94.1619 114.203 94.1935 114.172 94.1935 114.133V113.582C94.1935 113.544 94.1623 113.512 94.1234 113.512C94.0849 113.512 94.0533 113.543 94.0533 113.582V114.133C94.0533 114.172 94.0846 114.203 94.1234 114.203Z" fill="#0D314C"/>
<path d="M93.715 114.26C93.7535 114.26 93.7851 114.229 93.7851 114.19V113.494C93.7851 113.456 93.7535 113.424 93.715 113.424C93.6765 113.424 93.6449 113.456 93.6449 113.494V114.19C93.6453 114.228 93.6765 114.26 93.715 114.26Z" fill="#0D314C"/>
<path d="M93.2696 114.281C93.3081 114.281 93.3396 114.249 93.3396 114.211V113.493C93.3396 113.454 93.3084 113.423 93.2696 113.423C93.2311 113.423 93.1995 113.454 93.1995 113.493V114.211C93.1995 114.249 93.2307 114.281 93.2696 114.281Z" fill="#0D314C"/>
<path d="M92.7902 114.133C92.8286 114.133 92.8602 114.102 92.8602 114.063V113.493C92.8602 113.454 92.829 113.423 92.7902 113.423C92.7517 113.423 92.7201 113.454 92.7201 113.493V114.063C92.7204 114.102 92.7517 114.133 92.7902 114.133Z" fill="#0D314C"/>
<path d="M92.3307 114.06C92.3692 114.06 92.4008 114.029 92.4008 113.99V113.493C92.4008 113.454 92.3695 113.423 92.3307 113.423C92.2922 113.423 92.2606 113.454 92.2606 113.493V113.99C92.261 114.029 92.2922 114.06 92.3307 114.06Z" fill="#0D314C"/>
<path d="M91.78 114.19C91.8189 114.19 91.8501 114.159 91.8501 114.12V113.44C91.8501 113.402 91.8189 113.37 91.78 113.37C91.7415 113.37 91.7103 113.401 91.7103 113.44V114.12C91.7103 114.159 91.7415 114.19 91.78 114.19Z" fill="#0D314C"/>
<path d="M91.2669 114.07C91.3054 114.07 91.337 114.039 91.337 114V113.262C91.337 113.223 91.3058 113.192 91.2669 113.192C91.2285 113.192 91.1969 113.223 91.1969 113.262V114C91.1969 114.039 91.2281 114.07 91.2669 114.07Z" fill="#0D314C"/>
<path d="M90.8754 113.951C90.9138 113.951 90.9454 113.92 90.9454 113.881V113.209C90.9454 113.171 90.9142 113.139 90.8754 113.139C90.8369 113.139 90.8053 113.17 90.8053 113.209V113.881C90.8053 113.92 90.8365 113.951 90.8754 113.951Z" fill="#0D314C"/>
<path d="M90.379 113.885C90.4175 113.885 90.4491 113.854 90.4491 113.815V113.086C90.4491 113.047 90.4179 113.016 90.379 113.016C90.3405 113.016 90.309 113.047 90.309 113.086V113.815C90.3093 113.854 90.3405 113.885 90.379 113.885Z" fill="#0D314C"/>
<path d="M89.9535 113.779C89.992 113.779 90.0235 113.747 90.0235 113.709V112.997C90.0235 112.958 89.9923 112.927 89.9535 112.927C89.915 112.927 89.8834 112.958 89.8834 112.997V113.709C89.8838 113.747 89.915 113.779 89.9535 113.779Z" fill="#0D314C"/>
<path d="M89.457 113.652C89.4955 113.652 89.5271 113.621 89.5271 113.582V112.942C89.5271 112.904 89.4959 112.872 89.457 112.872C89.4185 112.872 89.3869 112.904 89.3869 112.942V113.582C89.3869 113.621 89.4185 113.652 89.457 113.652Z" fill="#0D314C"/>
<path d="M88.9776 113.386C89.0161 113.386 89.0477 113.355 89.0477 113.316V112.659C89.0477 112.62 89.0165 112.589 88.9776 112.589C88.9388 112.589 88.9075 112.62 88.9075 112.659V113.316C88.9075 113.355 88.9388 113.386 88.9776 113.386Z" fill="#0D314C"/>
<path d="M88.623 113.263C88.6615 113.263 88.6931 113.232 88.6931 113.193V112.5C88.6931 112.462 88.6619 112.43 88.623 112.43C88.5845 112.43 88.5529 112.462 88.5529 112.5V113.193C88.5533 113.232 88.5845 113.263 88.623 113.263Z" fill="#0D314C"/>
<path d="M99.031 117.648C98.4199 118.199 97.6222 118.485 96.8455 118.756C94.8812 119.441 92.8867 120.116 90.8137 120.291" stroke="#074368" stroke-width="0.0974223" stroke-miterlimit="10" stroke-linecap="round" stroke-linejoin="round"/>
</svg>
